<svg version="1.2" xmlns="http://www.w3.org/2000/svg" viewBox="0 0 249 254" width="249" height="254">
	<title>sheep-svg</title>
	<style>
		.s0 { fill: #000000 } 
		.s1 { fill: #ebdccd } 
		.s2 { fill: #cab5a3 } 
		.s3 { fill: #a98f79 } 
		.s4 { fill: #ffd4c5 } 
		.s5 { fill: #ffb098 } 
		.s6 { fill: #d6735c } 
		.s7 { opacity: .6;fill: #cab5a3 } 
		.s8 { fill: #96816f } 
		.s9 { fill: #ffffff } 
		.s10 { opacity: .3;fill: #ddc5ac } 
		.s11 { opacity: .2;fill: #ddc5ac } 
		.s12 { opacity: .4;fill: #ddc5ac } 
		.s13 { opacity: .5;fill: #96816f } 
		.s14 { opacity: .6;fill: #ddc5ac } 
		.s15 { fill: #d85961 } 
		.s16 { opacity: .6;fill: #975961 } 
		.s17 { fill: #005688 } 
		.s18 { fill: #009fbc } 
		.s19 { fill: #001d3b } 
		.s20 { fill: #ffede9 } 
		.s21 { opacity: .7;fill: #ffede9 } 
		.s22 { fill: #eb969d } 
		.s23 { opacity: .5;fill: #eb969d } 
		.s24 { opacity: .4;fill: #bfb6af } 
	</style>
	<g id="Layer">
		<g id="Layer">
			<g id="Layer">
				<g id="Layer">
					<g id="Layer">
						<path id="Layer" class="s0" d="m86.1 164.4c-1.6 0-3.2 0-4.8-0.2-1-0.1-1.9-0.4-2.7-0.9-0.3-0.2-2.3-2.4-2.3-3q0.8-0.7 1.5-1.7c0.2-0.2 0-0.6-0.3-0.4-2.6 2.3-5.4 2.8-8.7 2.4-3.5-0.5-7.4-4.6-5.1-8.2 0 0 0 0 0 0-1.4 1.4-1.8 3.2-1.4 4.9q-0.1 0.1-0.2 0.2c-0.7 1.7-1.6 3.4-3 4.6q-0.4 0.4-0.9 0.7 0.1 0.9 0.3 1.8 0.4-0.2 0.8-0.5c3.3 7.5 5 15.3 6.3 23.4 1.5 8.5 1.7 16.7 1.7 25.3-1.4 2.2-3.7 3.7-5.4 5.9-1.8 2.6-3.4 5.2-3.9 8.4-0.3 2-1 4.3 1.2 5.5 1.9 1.1 3.9 1.5 5.8 0.8 2.2 1.8 7.2 1.5 9.4 0.6 3.7-1.3 4.7-4.8 5.1-8.4 0.2-2-0.1-4.2-0.4-6.3-0.3-2.6-0.1-5-0.1-7.6 1.5-6.9 2-14.1 2-21.1 0.1-4.8 0.1-9.8-0.4-14.6-0.4-3.7-1.4-7.3-2.3-10.9q0.1 0.1 0.3 0.1c2.5 1.2 5 0.9 7.5 0 0.3-0.1 0.4-0.8 0-0.8z"/>
						<path id="Layer" class="s1" d="m75.7 231.4c-1.3 1.3-3.8 1.2-5.5 1.3-2 0-4.1-0.3-4.9-2.4-0.6-1.8-0.1-4.7 0.3-6.4 0.1-0.6 0.5-1 0.6-1.5-0.7 1-1.3 2.1-1.8 3.3-0.1 0.5-0.2 1.1-0.4 1.6-0.6 1.7-0.6 3.3 0.1 4.8-2.2-0.1-5-0.6-4.7-3.1 0.2-2.4 1.1-4.9 2.4-7 1.3-2.1 2.9-3.9 4.5-5.8-0.1 0.4-0.1 0.9 0.1 1.3 0.8 1.7 2.8 2.2 4.6 2.7 1.8 0.5 4.4 0.6 5.9-0.7q0.3-0.3 0.6-0.6 0.1 1.1 0.2 2.2c0.4 3.1 0.5 7.9-2 10.3z"/>
						<path id="Layer" class="s2" d="m60 229.9c1.3-4.4 3.4-8.7 6.6-12q-0.1-0.2-0.2-0.4c-0.2-0.4-0.2-0.9-0.1-1.3-1.6 1.9-3.2 3.7-4.5 5.8-1.3 2.1-2.2 4.6-2.4 7-0.1 0.7 0.1 1.2 0.4 1.6q0.1-0.3 0.2-0.7z"/>
						<path id="Layer" class="s2" d="m70 219.9q-0.5-0.1-0.9-0.3c-2 2.9-3.3 6.2-4 9.7q0.1 0.5 0.2 1c0.7 1.8 2.3 2.2 4 2.3 1-4.1 1.3-8.6 0.7-12.7z"/>
						<path id="Layer" class="s2" d="m73 232.5c0.5-4 0.4-8 0-12q-0.3 0-0.5 0c0.4 4 0.1 8.1-0.7 12.1q0.6 0 1.2-0.1z"/>
						<path id="Layer" class="s3" d="m77.7 221.1q-0.1-1.1-0.2-2.2-0.3 0.3-0.5 0.6c-1.6 1.3-4.2 1.2-6 0.7q-0.9-0.2-1.7-0.5c0.9 0.6 1.9 1.1 3 1.8 1.3 0.8 1.4 2.7 1.4 4.1 0 2.3-0.2 4.7-0.8 6.9 1-0.1 2.1-0.4 2.8-1.1 2.5-2.4 2.4-7.2 2-10.3z"/>
						<path id="Layer" class="s3" d="m64 227.3q0.1-0.5 0.2-1c-0.9 1.8-1.7 3.6-2.1 5.6 0.6 0.1 1.4 0.2 2 0.2-0.7-1.5-0.7-3.1-0.1-4.8z"/>
						<path id="Layer" class="s4" d="m78.8 175.6c0.2 4.8 0.1 9.7 0.1 14.6-0.1 5.6-0.6 11-1.1 16.5q0.1 0.1 0.1 0.4c-0.3 2.6 0 5.2-0.2 7.8-0.1 1.3-0.3 2.5-1.4 3.3-0.9 0.7-1.9 0.8-3 0.7q-0.3 0-0.7 0c-1.7 0-4.7-0.5-5.1-2.6-0.3-1.4 0.3-2.8 0.8-4.1 1.2-8 0-16.5-1.4-24.4-1.4-8.3-3.6-16.3-7.4-23.8 1.7-1.3 3-3.3 3.3-5.3 0.6 1.3 1.7 2.4 3.1 3.1 3.3 1.5 7.3 0.9 10.1-1.3-0.4 1.6 0.5 3.3 1.8 4.3 0.4 3.6 0.9 7.1 1 10.8z"/>
						<path id="Layer" class="s5" d="m78.8 175.6c-0.1-3.7-0.6-7.2-1-10.8-1.3-1-2.2-2.7-1.8-4.3-2.8 2.2-6.8 2.8-10.1 1.3-1.4-0.7-2.5-1.8-3.1-3.1-0.3 2-1.6 4-3.3 5.3 3.1 6.1 5.1 12.6 6.6 19.3 0-0.1 1 6.9 1.1 6.8 0.6-0.7 0.4-2.7 1.5-2.9 6.9-1.2 6.6 8.4 6.7 14.8 0.2 5.5 0 11.4-1.2 16.9 0.8 0 1.5-0.2 2.1-0.7 1.1-0.8 1.3-2 1.4-3.3 0.2-2.6-0.1-5.2 0.2-7.8q0-0.3-0.1-0.4c0.5-5.5 1-10.9 1.1-16.5 0-4.9 0.1-9.8-0.1-14.6z"/>
						<path id="Layer" class="s6" d="m69.8 181.6c0.2-0.1 0.4 0 0.4 0.2 1 3.8 6.1 3.5 8.7 5.9 0-4 0.1-8.1-0.1-12.1-0.1-3.7-0.6-7.2-1-10.8-1.3-1-2.2-2.7-1.8-4.3-2.8 2.2-6.8 2.8-10.1 1.3-1.4-0.7-2.5-1.8-3.1-3.1-0.3 2-1.6 4-3.3 5.3 2.7 5.3 4.6 10.9 6 16.7 1.1 0.9 2.7 1.2 4.3 0.9z"/>
					</g>
					<g id="Layer">
						<path id="Layer" class="s0" d="m163.4 143.5c-1.6 0-3.1 0-4.7-0.1-0.9-0.2-1.7-0.4-2.6-1-0.2-0.1-2.2-2.1-2.2-2.7q0.8-0.7 1.5-1.6c0.2-0.3 0-0.6-0.3-0.4-2.5 2.1-5.2 2.6-8.4 2.2-3.5-0.4-7.2-4.3-5-7.6 0 0 0-0.1 0 0-1.4 1.3-1.8 3-1.4 4.6q-0.1 0.1-0.1 0.1c-0.7 1.6-1.6 3.2-3 4.4-1.7 1.4-4.3 2.5-6.3 1.4 0 0-0.1 0-0.1 0 1.9 2.2 4.5 1.9 6.7 0.4 3.1 7.1 4.8 14.4 6.1 22 1.4 7.9 1.6 15.7 1.6 23.7-1.4 2.1-3.6 3.5-5.2 5.5-1.8 2.4-3.4 4.9-3.8 7.9-0.3 1.9-1 4 1.1 5.2 1.9 1 3.8 1.4 5.7 0.7 2.1 1.8 7 1.4 9.1 0.6 3.6-1.3 4.5-4.5 4.9-7.9 0.3-1.9-0.1-3.9-0.3-5.9-0.4-2.4-0.1-4.7-0.1-7.1 1.4-6.5 1.9-13.3 1.9-19.8 0-4.6 0.1-9.2-0.4-13.7-0.4-3.5-1.3-6.9-2.3-10.3q0.2 0.1 0.4 0.2c2.3 1.1 4.8 0.8 7.2 0 0.3-0.2 0.5-0.8 0-0.8z"/>
						<path id="Layer" class="s1" d="m153.4 206.3c-1.3 1.2-3.7 1.2-5.4 1.2-1.9 0-4-0.2-4.7-2.2-0.6-1.6-0.1-4.4 0.2-6 0.2-0.8 0.9-1.3 0.5-2.1-0.1 0-0.2 0.1-0.2 0.1 0.2 0.5-0.9 2.1-1.1 2.5-0.4 0.9-0.4 1.8-0.8 2.7-0.5 1.6-0.5 3.1 0.2 4.5-2.2-0.1-4.9-0.6-4.6-2.9 0.3-2.3 1.1-4.6 2.3-6.5 1.3-2.1 2.9-3.7 4.4-5.6-0.1 0.5-0.1 0.9 0.1 1.3 0.8 1.6 2.7 2.1 4.4 2.5 1.8 0.5 4.4 0.6 5.9-0.6q0.2-0.3 0.5-0.6 0.1 1 0.2 2.1c0.4 2.9 0.5 7.4-1.9 9.6z"/>
						<path id="Layer" class="s7" d="m153.4 206.3c-1.3 1.2-3.7 1.2-5.4 1.2-1.9 0-4-0.2-4.7-2.2-0.6-1.6-0.1-4.4 0.2-6 0.2-0.8 0.9-1.3 0.5-2.1-0.1 0-0.2 0.1-0.2 0.1 0.2 0.5-0.9 2.1-1.1 2.5-0.4 0.9-0.4 1.8-0.8 2.7-0.5 1.6-0.5 3.1 0.2 4.5-2.2-0.1-4.9-0.6-4.6-2.9 0.3-2.3 1.1-4.6 2.3-6.5 1.3-2.1 2.9-3.7 4.4-5.6-0.1 0.5-0.1 0.9 0.1 1.3 0.8 1.6 2.7 2.1 4.4 2.5 1.8 0.5 4.4 0.6 5.9-0.6q0.2-0.3 0.5-0.6 0.1 1 0.2 2.1c0.4 2.9 0.5 7.4-1.9 9.6z"/>
						<path id="Layer" class="s7" d="m147.2 202.3c0.4-2.2 0.8-4.4 1.5-6.5q-0.6-0.1-1.1-0.3-0.1 0.1-0.2 0.2-2.6 3.5-3.8 7.5-0.2 0.9-0.4 1.7 0 0.2 0.1 0.4c0.5 1.4 1.7 1.9 3.1 2.1 0.1-1.7 0.4-3.4 0.8-5.1z"/>
						<path id="Layer" class="s2" d="m140.5 206q0.3-1.9 0.9-3.8c0.7-2.8 1.7-5.7 3.6-8q-0.4-0.4-0.7-0.9c-2.2 2.6-4 5.3-5.3 8.5-0.4 1.2-0.9 2.4-1.2 3.7 0.4 0.7 1.4 1.1 2.5 1.3q0.1-0.4 0.2-0.8z"/>
						<path id="Layer" class="s3" d="m142.7 199.8c0.1-0.2 0.4-0.6 0.6-1.1-1.8 2.4-2.7 5.2-3.1 8.1 0.6 0.1 1.3 0.2 1.9 0.2-0.7-1.4-0.7-2.9-0.2-4.5 0.4-0.9 0.4-1.8 0.8-2.7z"/>
						<path id="Layer" class="s3" d="m155.3 196.7q-0.1-1.1-0.2-2.1-0.3 0.3-0.5 0.6c-1.5 1.2-4.1 1.1-5.9 0.6-1.2-0.3-2.6-0.6-3.5-1.4 0.7 0.8 1.8 1.5 2.7 1.7 1.4 0.3 2.7 0.4 4.1 0.4 0.3 0 0.6 0.2 0.6 0.5 0.1 3.6-0.5 7.1-1.9 10.4 1-0.2 2-0.4 2.7-1.1 2.4-2.2 2.3-6.7 1.9-9.6z"/>
						<path id="Layer" class="s6" d="m156.4 154c0.2 4.6 0 9.1 0 13.7-0.1 8.6-1.2 17.1-2.2 25.6-1.2 1.6-4.3 0.8-5.8 0.3-1-0.3-2.7-0.7-2.8-1.9 0-0.7 0.2-1.4 0.3-2q0-0.1 0-0.1c1.6-7.9 0.3-16.4-1.1-24.2-1.4-7.8-3.5-15.2-7.2-22.3 1.7-1.2 3-3.1 3.2-4.9 0.6 1.2 1.7 2.3 3 2.8 3.3 1.5 7.1 1 9.8-1.1-0.4 1.5 0.5 3 1.8 3.9 0.4 3.4 0.8 6.8 1 10.2z"/>
						<path id="Layer" class="s6" d="m143.6 144.9c0.1-0.1 0.2-0.2 0.4-0.1 1.8 1 3.2 0.4 5-0.2 1.1-0.4 2.2-0.6 3.4-0.2 1.3 0.5 2.4 1.3 3.3 2.3q-0.2-1.4-0.3-2.9c-1.3-0.9-2.2-2.4-1.8-3.9-2.7 2.1-6.5 2.6-9.8 1.1-1.3-0.5-2.4-1.6-3-2.8-0.2 1.8-1.5 3.7-3.2 4.9q1.3 2.5 2.4 5.2c1.5-0.7 2.8-2 3.6-3.4z"/>
					</g>
					<g id="Layer">
						<path id="Layer" class="s8" d="m234.6 88.2c0.4-3-0.8-7.4-3.8-8.5q0.8-0.9 0.7-2.3c-0.2-1.9-1.9-3-3.5-3.8 5.6-3 1.6-11.5-3.9-12.8 0.6-1.8 0.1-4.5-1.7-4.6 1-2.2 1.2-4.9-0.3-7-1.4-2.2-3.8-3.8-6.3-2.6 0.1-2.1-1.3-4.6-3.4-4.7 1.3-2.3 0.9-5.8-1.2-7.5-1.4-1-3.3-1.5-5-1.7-0.6 0-1.4 0-2.3 0.2 0.6-2.6-1.9-4.7-4.4-4 0.8-3.3-0.5-6.7-3.9-7.9-3.1-1-6.1 1.2-6.9 4-1.6-1.1-4-1.7-5.4-0.5-0.5-2.1-2.5-3-4.7-3.4-1.7-0.3-3.2 0.3-4.5 1.2-0.2-3.3-4.5-2.9-6.7-1.2 0-4.5-1.7-8.5-6.9-8.8-4.1-0.2-8.2 1.3-10 4.9-0.2-1.3-0.7-2.4-1.9-2.9-2.6-1-4.6 0.5-6.2 2.3-0.5-3.2-3-5.2-6.6-4.3-3.8 0.8-4.6 4-5.2 7.3-1.6-0.5-3 0.7-3.6 2.3-1.8-3.3-8-3.9-11.1-2.4-2.5 1.2-4.2 4.1-5 6.8-1.5-1.1-3.6-0.7-5.3-0.1-1.8 0.6-4 2.4-4.6 4.3-0.5 1.7-0.3 3.3 0.1 4.9-2.7-0.3-5.4 1.2-7.2 3.2-2.3 2.5-2.5 5.7-1.9 8.8-2-0.6-3.8-0.5-5.5 1-0.8 0.7-1.4 1.5-1.8 2.5-1.6-0.9-3.5-0.3-4.8 1.5-2.3 3.2-1.5 6.4-0.3 9.8-3 0-5.5 1.8-6.7 4.5-4.1-2.4-10.9 3-13.4 5.9-2.1 2.5-4 6.6-2.8 10 0.6 1.5 2.6 3.2 1.6 4.8-0.6 0.9-0.5 2-0.2 3-3 0.7-5.2 3.7-4.6 6.6-2.6-2.5-6.7-3.5-9.9-1.5-3.7 2.2-2.6 6.4 0.3 8.6-5.5-0.1-9.6 3.7-10.3 9.3-0.4 2.8 1.5 5.1 3.8 6.5 1.8 1.1 4.7 2.5 7.1 2.2-1.5 1.8-2.9 4.5-1 5.6-4.6 2.1-7.7 8.4-5.7 13 1.2 3 4.3 5.5 7.3 6.6 1.5 0.5 3.9 0.4 5.4-0.5-0.4 1.2-0.7 2.5 0.3 3.4 1.3 1.1 3.1 1.1 4.7 0.7-0.3 0.6-0.4 1.4-0.4 2.1 0.1 2.4 1.7 4.5 3.9 5.4-1.4 1.2-2.6 2.2-3.4 4.1-0.9 2-0.7 4.2 0 6.2 0.8 2.1 3.1 4.2 5.3 4.8 2.1 0.7 3.6 0.3 5-0.9-0.6 3.8 2.3 6.8 6.1 6.2-0.1 0.9 0 1.9 0.5 2.8 2.4 3.9 7.8 3.7 11.1 1.4 1.8-1.1 3.1-2.9 4.3-4.7 0.5-0.7 0.6-1.8 0.7-0.5 0 0.7 0.1 1.6 0.5 2.3 1.6 2.4 5.7 2.6 7.7 0.6 0 1.3-0.2 2.5 0.1 3.8 0.2 1 0.8 1.9 1.3 2.7 1.3 1.8 3.3 2.9 5.5 3.2 3.5 0.4 6.9-1.2 8.7-4.1 0.4 1.4 1.5 2.5 3.5 3.3 1.9 0.7 4.2 0.6 6.1-0.3 0.8-0.4 2.3-1.2 3.2-2.2 1.3 3.1 4.3 3.9 7.6 4.1 3.3 0.2 5.4-2.2 5.8-5.1 0.9 0.8 2.2 0.9 3.4 0.2 1.1-0.5 1.6-1.7 1.7-3q0.4 0.4 0.9 0.7c1.2 0.9 3.7 1.6 5.1 1.2 1.5-0.5 2.2-1.5 2.8-2.9 0.2-0.7 0.3-1.6 0.5-2.4q0.1-0.6 0.2-1.1c0.1-0.8-0.1-0.5 0.3-0.1 2.2 2.1 6.3 1.8 8.6 0.2 1.9-1.3 2.6-4 2.3-6.4 1.7 0.4 3.7-0.5 4.8-2.1 2.7 2.7 8.5 3.5 10-1.5 0.5-1.6 0.4-3.3 0.2-4.8 0.1 0.9 1.3 1.2 2.3 1 1.7-0.3 3.1-2.6 3.4-4.6 1.6 0.8 3.6 1.2 5.3 1.2 4.4 0 6.4-4.5 6-8.4 3.1 2 8.1-1.3 7.1-4.4 1.8 1 4.6 1.1 6.4 0.1 2.3-1.4 3.8-4.5 4.2-7.1 0.2-1.1 0.1-1.9 0-3q-0.1-0.4-0.1-0.9c2.1 1 5.2 0 6.4-1.9 1.4-2.1 2.1-6 0.6-8.4 2.7-0.5 5.1-2.6 6.1-5.4 0.5-1.3 0.6-5.1-0.4-7.1 1.3-0.7 2.4-2.3 3-3.3 1.3-2.3 1.6-5.3-0.2-7.2 1.9-1.1 3.1-2.4 3.4-4.9 0.1-2-1.3-3.8-2.8-5.2 2.2-1.2 4.3-4.6 4.5-6.4z"/>
						<path id="Layer" class="s9" d="m230.7 92.6c-0.6 0.6-1.3 1-1.9 1.5q0.3 0.4 0.5 0.8 0.1-0.1 0.2-0.1c0.6 0.8 1.1 1.6 1.5 2.5 1.2 3.1-0.5 5.1-2.9 6.7 1 1.4 1.6 3 1.4 4.6-0.2 2.5-1.9 5.4-3.6 5.6q-0.3-0.2-0.7-0.3c0.8 1.2 1 2.6 0.9 4.1q0.1 0.4 0.1 0.6c0.2 1.5 0 2.9-0.7 4.3-1.2 2.6-3.8 3.5-6.4 3.4 2.3 3 2.8 6.8-0.4 9.7-1.1 0.9-4.7 2.1-6.1 0.9q0 0 0 0.1 0.3 0.3 0.7 0.6c0.1 0.8 0.4 2.3 0.4 2.7 0.2 2.1-1.2 4.4-2.6 5.9q-0.7 0.8-1.7 1.2c-2.9 1.5-7.3 0.5-7.7-2.6-0.4 1.3 0 2.4 0.7 3.2q0 0 0 0c0.1 1.6 0.1 2.9-1.1 4.1-1.4 1.4-3.7 1.5-5.1 0.1-0.3-0.3-0.5-0.1-0.6 0.2 0.3 2.7 0.1 5.7-2.2 7.2-2.5 1.6-6.6 1.6-8.7-0.6q-0.2 0.7-0.5 1.3c-0.6 2.7-2.6 6.1-5 3.2-0.1-0.2-0.4 0-0.3 0.2q0 0.6 0 1.2c0.2 2.8-0.6 5.6-3.9 6.1-1.4 0.2-4.8-0.4-5.9-1.9q-0.6 0.6-1.5 1-0.1 0.1-0.2 0.1c-0.9 0.4-1.9 0.6-2.7 0.3q-0.5-0.1-1-0.3c0.2 1.9 0.1 3.8-1.1 5.6-0.4 0.7-1 1.3-1.7 1.8q-0.2 0.1-0.3 0.2-0.4 0.2-0.7 0.4 0 0 0 0-0.1 0-0.3 0.1-0.2 0.1-0.3 0.1-0.2 0.1-0.3 0.1c-2 0.4-4.2 0-5.8-1-0.1-0.1-0.3 0-0.3 0.2-0.6 2.3-0.8 5.9-3.9 6.1-1.4 0.1-2.7-0.2-3.8-0.8q-0.8-0.4-1.5-1.1 0 0 0-0.1-0.1 0-0.1 0-0.2-0.3-0.4-0.7c-0.1 0.9-0.3 1.8-0.7 2.5q0 0.1 0 0.2c-0.4 1.5-2 2.3-3.2 1.5-0.5-0.2-1-0.5-1.4-0.9q-0.1 0.2-0.2 0.4c-0.1 3.2-2.2 5-5.4 4.9-2.5-0.1-6.2-0.8-6.4-3.9-0.1-0.7-0.8-0.4-1 0-0.4 0.8-2.6 1.6-3.4 1.9-1.4 0.7-3 0.6-4.4 0.3-3.2-0.6-3.8-2.6-3.5-4.9 0-1 0-2.2 0.2-3.3-0.9 1.7-1.6 3.5-1.5 5.2-1.7 2.4-4.6 3.7-7.6 3.8-1.8 0-3.3-0.7-4.6-1.8-2.7-2-2.6-4.6-2.5-7.7 0-0.4-0.4-0.6-0.7-0.3-1.2 1.4-3 1.7-4.8 1.4-2.2-0.4-2.8-2-3-4-0.1-0.2-0.3-0.2-0.4 0-2.4 3.4-5.9 6.9-10.5 6.1q-0.6-0.1-1.2-0.3c-1.3 0.1-2.6-0.2-3.3-1-1.5-1.5-0.8-3.9-0.1-5.6-0.6 0.7-1.1 1.6-1.4 2.4-3.4 0.1-7-2.6-5.1-6.4 0.2-0.4-0.1-1-0.6-0.7-3.6 2.3-7.6 0.6-9.6-3-1.6-2.8-0.3-8.7 3.5-9.1 0.4 0 0.8-0.5 0.8-1-1.5-0.5-2.9-1.4-3.8-2.8q-0.4-0.6-0.8-1.2c-0.6-1.3-0.3-2.6 0.3-3.8q0.1-0.4 0.2-0.8 0.1-0.5 0.2-0.9c-0.5 0.5-1 1.1-1.4 1.8-1 0.1-2 0.2-3 0.1-2.5-0.2-2-2.9-1.2-4.6 0.2-0.4-0.3-0.7-0.6-0.3-1.4 1.6-5 0.7-6.6 0-2.4-1-4.3-3.1-5.6-5.3-2.6-4.3 1.9-10.9 6.2-11.9 0.5-0.2 0.6-1 0-1-3.5-0.2-1-4.1 0.6-5.3 0.3-0.2 0.3-0.8-0.2-0.7-2.1 0.6-4.3-1-6.1-1.9-2.3-1.1-4.2-2.7-4.6-5.4-0.7-5.8 5.2-9.4 10.2-9 0.3 0 0.5-0.4 0.2-0.6-4-2-4.6-7 0.2-8.7 3-1.1 6.8 0.8 8.8 3.1q0 0 0 0.1 0.1 0 0.1 0.1c0.4 0.4 1.1-0.2 0.8-0.7-1.6-2.7 0.8-6.2 3.8-6.3 0.5-0.1 0.9-0.7 0.7-1.1-0.4-1.2-0.7-2.3 0.3-3.4q0.2-0.2 0.2-0.5c0.1-0.6-0.5-1.5-0.8-2.1-1.1-1.9-1.9-3.4-1.7-5.6 0.2-2.2 1.5-4.4 2.8-6 2.2-2.7 8.9-7.8 12.4-4.9 0.3 0.2 0.8-0.1 0.9-0.4 0.9-3 3.5-4.8 6.6-4.4 0.5 0.1 0.9-0.4 0.7-0.9-0.8-2.1-1.6-4.1-1.5-6.3 0-1.4 0.8-2.6 1.6-3.5 1-1.1 2.1-1 3.1-0.6-0.3 1.3-0.4 2.6-0.1 3.7q0 0.2 0.2 0.2 0 0 0 0 0 0 0 0 0.2 0 0.3-0.1 0-0.1 0-0.2c0.3-1 0.4-2 0.7-2.9q0.1 0 0.1 0c0.4 0.3 0.8-0.4 0.6-0.7q-0.2-0.2-0.3-0.3c0.3-0.7 0.7-1.3 1.2-1.9 1.6-2 3.8-1.3 5.8-0.6 0.6 0.2 1.2-0.6 0.9-1.1-2.6-5.2 2.2-13.3 8.4-10.9 0.7 0.3 1.1-0.7 1-1.2-1.1-3.1-1.2-5.8 1.8-7.8q0.5-0.3 1-0.5 0.1-0.2 0.3-0.3c1.4-1.1 3.5-1.1 4.9 0 0.8 0.5 1.2 1.4 1.5 2.3 0.1-1-0.2-2-0.9-2.8 0.5-1.3 1-2.5 1-2.6 1.1-1.8 3-3.9 5.3-4.1 2.2-0.2 8.4 0.4 8.9 3.3 0.1 0.5 0.7 0.3 0.7-0.1 0-1.4 1.1-3.8 3.2-2.6 0.2 0.1 0.4 0 0.5-0.1-0.1-1.3 0.3-2.5 0.9-3.7 0.4-1.4 1.1-2.8 2.7-3.4q0.3-0.2 0.7-0.3 0.6-0.3 1.3-0.2c1 0 2 0.2 2.9 0.6 1.6 0.8 1.8 2.8 1.9 4.3 0 0.6 0.6 0.4 0.8 0.1 1.2-1.8 2.9-3.6 5.2-3.1 2.1 0.4 2.1 3.2 2.1 4.8q0 0.1 0 0.2c0.6-1.5 1.7-3 2.4-3.9 1.6-2.2 4.3-3.3 6.9-3.1q1.2 0.1 2.1 0.5c3.4 0.6 4.7 3.2 5.1 6.3q0.5 1.6 0.7 3.2 0.2 0 0.3-0.3c1.2-2.3 5.5-2.9 6.3-0.1q0 0.1 0 0.1-0.7 0.7-1.3 1.5c-0.2 0.1-0.1 0.3 0 0.4 1.2-2 4.6-2.7 6.7-2.2 1.8 0.4 3.6 1.4 4.6 3 1-1.9 4.2-0.4 5.1 0.6q0.1 0.1 0.2 0.1 0.4-1.2 1.2-2.1c1.2-2 3.8-2.6 6.2-1.5 2.6 1.3 2.8 4.6 2.1 7-0.1 0.5 0.2 0.9 0.7 0.6 2.6-1.5 3.9 0.8 4 2.9-0.7 0.2-1.3 0.5-1.8 0.9 0.9-0.2 1.9-0.3 2.8-0.3 1.3 0 2.5 0 3.6 0.5q0.5 0.1 0.9 0.2c3.2 1 4.5 4.8 3 7.7-0.1 0.2-0.1 0.5 0.2 0.5 2.3-0.4 3.9 2.5 3.4 4.5-0.1 0.3 0.1 0.6 0.4 0.4 2.5-1.5 4.6 0.4 5.7 2.5 1.3 2.1 0.8 4.9-0.6 6.8q-0.1 0.2-0.1 0.4c0.7-0.3 1.6-0.4 2.1 0 0.9 0.6 1 1.8 0.7 2.9q0 0 0 0 0 0.3 0 0.6-1.1-0.1-2.2 0.2 0 0-0.1 0.1c0.5 0 1.2 0 1.4 0 0.6 0 1.2 0.3 1.7 0.6q0.8 0.5 1.4 1.1c3.7 2.5 6 8.2 1.5 10.6-0.2 0.1-0.3 0.5-0.1 0.7 1.4 0.6 6.2 4 2.5 5.5-0.3 0.1-0.5 0.4-0.4 0.6 1 0.2 2.1 0.8 2.8 1.6q0.5 0.6 0.8 1.4c0.6 1.1 0.8 2.3 1 3.3 0.2 2-1.1 4.6-2.9 6.2z"/>
						<path id="Layer" class="s10" d="m97 41.3c2.6 0.4 4.8 2 6.9 3.6-1.1-5 4.2-9.1 9.1-9.5 0.2-0.1 0.4 0.2 0.4 0.4-0.3 2.5 0.9 4.3 2.8 5.6-1.9-3.8-0.1-7.7 4-9.3-1.2-0.8-2.4-2-1.8-3.6 0.5-1.6 2-2.7 3.5-3.3 1.7-0.6 3.8-0.8 5.4 0.4 0.9 0.6 1.4 1.6 1.5 2.7 1.2-2.6 3.3-4.8 5.6-3.2-0.3-3.1 4-4.3 6.7-2.3 1-3.7 5.3-3.4 7.6-0.6 3.6-7 17.1-6.3 15.7 2.8 2.1-0.8 4-0.1 5.9 1.3 0.1 0.1 0.2 0.3 0.2 0.5q-0.4 0.9-0.6 1.8c4.5-4.6 13-3.1 15.1 3.3 0.6-1.1 0.8-2.4 0.6-3.7-0.1-0.3 0.2-0.6 0.5-0.5 1.3 0.5 2.4 1.1 3.3 2 0.9-1.8 2.6-4 4.6-2.3 1.8 1.5 1.7 3.8 0.7 5.6 1.6-0.1 2.7 0.9 3.3 2.7 0 0.2-0.1 0.4-0.2 0.5-1.4 0.9-2.1 2.1-2.5 3.6 5.2-3.3 16.2-1 13.2 5.7 3.1-1.2 5.3 2.5 4.9 5.8 1.9-1.6 4.4-2.3 6.5-0.3 0.9 0.8 1.5 1.8 1.9 2.9 0.3-1.4 0.1-2.7-0.6-4-1.1-2-3.2-3.9-5.7-2.4-0.3 0.1-0.5-0.1-0.4-0.4 0.5-2-1.1-4.9-3.4-4.5-0.3 0-0.3-0.3-0.2-0.5 1.5-2.9 0.2-6.7-3-7.7q-0.4-0.1-0.9-0.2c-1.1-0.5-2.3-0.5-3.6-0.5-0.9 0-1.9 0-2.8 0.3 0.5-0.4 1.1-0.7 1.8-0.9-0.1-2.1-1.4-4.4-4-2.9-0.5 0.3-0.8-0.1-0.7-0.6 0.7-2.4 0.5-5.7-2.1-7-2.4-1.2-5-0.5-6.2 1.5q-0.8 0.9-1.2 2.1-0.1 0-0.2-0.1c-0.9-1-4.1-2.5-5.1-0.6-1-1.6-2.8-2.6-4.6-3-2.2-0.5-5.5 0.2-6.7 2.2-0.1-0.1-0.2-0.3 0-0.4q0.6-0.8 1.3-1.5 0 0 0-0.1c-0.8-2.8-5.1-2.2-6.3 0.1q-0.1 0.2-0.3 0.3-0.2-1.6-0.7-3.2c-0.4-3.1-1.7-5.7-5.1-6.3q-0.9-0.4-2.1-0.5c-2.6-0.2-5.3 0.9-6.9 3.1-0.7 0.9-1.8 2.4-2.4 3.9q0-0.1 0-0.2c0-1.6 0-4.4-2.1-4.8-2.3-0.5-4 1.3-5.2 3.1-0.2 0.3-0.8 0.4-0.8-0.1-0.1-1.5-0.3-3.5-1.9-4.3-0.9-0.4-1.9-0.6-2.9-0.6q-0.7-0.1-1.3 0.2-0.4 0.1-0.7 0.3c-1.6 0.6-2.3 2-2.7 3.4-0.6 1.2-1 2.4-0.9 3.7-0.1 0.1-0.3 0.2-0.5 0-2.1-1.1-3.2 1.3-3.2 2.7 0 0.4-0.6 0.6-0.7 0.1-0.5-2.9-6.7-3.5-8.9-3.3-2.3 0.2-4.2 2.3-5.3 4.1 0 0.1-0.5 1.3-1 2.6 0.7 0.8 1 1.8 0.9 2.8-0.3-0.9-0.7-1.8-1.5-2.3-1.4-1.1-3.5-1.1-4.9 0q-0.2 0.1-0.3 0.3-0.5 0.2-1 0.5c-3 2-2.9 4.7-1.8 7.8 0.1 0.5-0.3 1.5-1 1.2-4.2-1.6-7.8 1.6-8.8 5.5 0.9-1.1 2.1-1.8 3.8-1.5z"/>
						<path id="Layer" class="s11" d="m159.5 35.2c-0.3 0.1-0.6-0.2-0.5-0.5 0.3-2.2 1.7-4.1 3.7-5.1-3.2-0.2-6.1 1.8-6.2 5.4 0 0.2-0.2 0.5-0.5 0.4-1.6-0.2-2.6 0.8-3.1 2.3-0.1 0.3-0.5 0.4-0.7 0.2-4.9-3.8-10-0.1-13.8 3.3-0.2 0.2-0.4 0.2-0.6 0-2.5-2.1-5.9-1.9-8.9-0.9 3.5 0 6.6 1.7 7.6 5.4q0.1 0 0.2 0.1c3.4-3.2 8.5-4.6 12.9-2.5 0.1 0.1 0.2 0.3 0.2 0.5-1.1 2.5-0.8 4.9 0 7.3 0.1-4.7 3.3-9.3 7.6-11.3 2.5-1.1 5.5-1.9 8.3-1.1 2.2 0.6 4 2 6.1 3-1.5-4.9-7.4-7.8-12.3-6.5z"/>
						<path id="Layer" class="s11" d="m145 87.4c0.1 0.4-0.3 0.5-0.6 0.4-2.8-1.4-5.8-1.4-8.6 0-0.2 0.1-0.5 0.1-0.6-0.1-1.8-3.9-5.7-4.7-9-2.2-3.4 2.6-5.1 6.8-3.3 10.8 0.2 0.3-0.1 0.7-0.5 0.6-3.2-0.9-6.3-0.2-7.8 3-0.9 1.9-1.3 4.1-1.4 6.2 2.7-3.5 7.2-5 11.1-2.1 0.2 0.2 0.3 0.5 0.1 0.7-1.6 1.4-1.4 3.9-0.5 6.1q0.4 0.6 0.7 1.4c1.6-3.8 5.9-5.9 9.6-7.4 0.3-0.1 0.6 0.1 0.6 0.4-0.6 4.8 2 8.1 6.1 9.8-2.4-5.5-0.1-14.6 5.5-17.1 3.7-1.7 8-0.8 10.6 1.7 2.9-3.9 8.4-6.5 12.3-3.4-0.4-4.8-3.5-8.1-7.8-9.5-2.1 0-4.3 0.2-6.1 0.8-0.3 0-0.6-0.2-0.6-0.5 0.4-5.3-3.9-7-8.4-7.9-2.8-0.6-5.8-1.5-8.7-1.6 4.2 1.3 6.8 5.8 7.3 9.9z"/>
						<path id="Layer" class="s12" d="m229.5 94.8q-0.1 0.1-0.2 0.1-0.2-0.4-0.5-0.8c0.6-0.5 1.3-0.9 1.9-1.5 1.8-1.6 3.1-4.2 2.9-6.2-0.2-1-0.4-2.2-1-3.3q-0.3-0.8-0.8-1.4c-0.7-0.8-1.8-1.4-2.8-1.6-0.1-0.2 0.1-0.5 0.4-0.6 3.7-1.5-1.1-4.9-2.5-5.5-0.2-0.2-0.1-0.6 0.1-0.7 4.5-2.4 2.2-8.1-1.5-10.6q-0.6-0.6-1.4-1.1c-0.5-0.3-1.2-0.6-1.7-0.6-0.2 0-0.9 0-1.4 0q0.1-0.1 0.1-0.1 1.1-0.3 2.2-0.2 0-0.3 0-0.6 0 0 0 0c0.3-1.1 0.2-2.3-0.7-2.9-0.5-0.4-1.4-0.3-2.1 0q0-0.2 0.1-0.4c1.3-1.9 1.9-4.7 0.6-6.9q-0.3-0.6-0.9-1.2 0.1 1.2 0 2.3c-0.4 2.7-2 3.4-3.8 2.8 1.4 2.6 0 5.9-3 7.4-1.4 0.7-3.3 1.1-4.6 0-0.6-0.4-1-1-1.2-1.7-0.8 4.2-5.1 6.6-9.7 7.3 2.1 0.8 3.7 2.3 4.2 4.8 0 0.3-0.2 0.6-0.5 0.5-7-1.3-13.3 3.5-13.3 10.5 2.7-1.9 6.2-1.5 8.5 1 0.3 0.2 0.1 0.7-0.3 0.7-3.4-0.2-6.8 1.7-8.5 4.7 2.9-1.7 6.6-1.9 9.2 0.8 1.4-3.3 5.6-3.3 8.6-1.9 0.3 0.1 0.3 0.6 0 0.7-5.2 2.8-7.6 10.7-6.1 16.4 1.9-3.7 7.6-5.1 10.6-1.7 0.2 0.3 0 0.7-0.4 0.7-1.8 0.1-3.2 1.2-3.5 3.1-0.1 1-0.2 1.5 0.6 2.2 0.6 0.4 1 1.1 1.1 1.8 0.2 1.7-1 3.2-2.3 4.2-1.5 1.1-3.7 1.9-5.6 1.3-2-0.6-3.1-2.2-3.7-4.1-1 2-3 2.8-5.3 1.5-1-0.5-2-1.3-2.7-2.2-3 1-6.2 1.3-9.2 1 1.7 2.9 2.6 6.3 1.1 9.5-1.4 2.8-4.2 4.8-7.1 5.7-2.6 0.9-5.9 1.2-8.4-0.3-2.1-1.2-2.9-3.3-2.8-5.5-2 2.3-5.1 3-7.5 0.8-1.2 4.7-7 8.7-10.7 5.4 0.5 2.6 0 5.3-2.1 7.2-2.1 1.9-5.2 2.7-8.1 2.5-2.4-0.2-5.3-1.1-6.4-3.5-0.9-1.9-0.3-4 0.7-5.7-4.5 3-12.5 5.9-14 0.8-1.5 3.1-4.3 5.5-7.8 5.9-3.5 0.4-7.2-1.3-8.3-4.9-1.3-4.5 0.7-9.1 4.1-12.1 2.7-2.4 6-3.5 8.6-1.2-0.2-1.2 0-2.4 0.4-3.4-2-3-3.9-6.9-3.5-10.6 0.4-3.5 2.4-6.2 5.9-6.9 2.5-0.5 5.1-1.3 5.5-4.2 0.4-2.5-0.1-5.3-1.6-7.4-0.1-0.2 0-0.5 0.2-0.6 4.6-3.1 12.8-13.1 4-16.2-0.3 0-0.4-0.5-0.2-0.7 2.4-2 4.2-5.3 2.1-8.2-1.7-2.3-4.5-2.7-6.6-0.6-0.3 0.3-0.9-0.1-0.7-0.5 3.8-5.2-1.7-11.5-7.2-8.1-0.4 0.2-0.8-0.2-0.7-0.5 2.5-8.6-8.8-10.6-14.9-7.5-0.7 2-0.7 4.3 0.2 6.2 0.3 0.5-0.3 1.3-0.9 1.1-2-0.7-4.2-1.4-5.8 0.6-0.6 0.6-0.9 1.2-1.2 1.9q0.1 0.1 0.3 0.3c0.2 0.3-0.2 1-0.6 0.7q0 0-0.1 0c-0.3 0.9-0.4 1.9-0.7 2.9q0 0.1-0.1 0.2 0 0.1-0.2 0.1 0 0 0 0 0 0 0 0-0.2 0-0.2-0.2c-0.3-1.1-0.2-2.4 0.1-3.7-1-0.4-2.1-0.5-3.1 0.6-0.8 0.9-1.6 2.1-1.6 3.5-0.1 2.2 0.7 4.2 1.5 6.3 0.2 0.5-0.2 1-0.7 0.9-3.1-0.4-5.7 1.4-6.7 4.4 0 0.3-0.5 0.6-0.8 0.4-3.5-2.9-10.2 2.2-12.4 4.9-1.3 1.6-2.6 3.8-2.8 6-0.2 2.2 0.6 3.7 1.7 5.6 0.3 0.6 0.9 1.5 0.8 2.1q0 0.3-0.2 0.5c-1.1 1.1-0.7 2.2-0.3 3.4 0.2 0.4-0.2 1-0.7 1.1-3 0.1-5.4 3.6-3.8 6.3 0.3 0.5-0.4 1.1-0.8 0.7q0-0.1-0.1-0.1 0-0.1 0-0.1c-2-2.3-5.8-4.2-8.8-3.1-4.8 1.7-4.2 6.7-0.2 8.7 0.3 0.2 0.1 0.6-0.2 0.6-5-0.4-10.9 3.2-10.2 9 0.4 2.7 2.3 4.3 4.6 5.4 1.8 0.9 4 2.5 6.1 1.9 0.5-0.1 0.5 0.5 0.2 0.7-1.6 1.2-4.1 5.1-0.6 5.3 0.6 0 0.5 0.8 0 1-4.3 1-8.8 7.6-6.2 11.9 1.3 2.2 3.2 4.3 5.6 5.3 1.5 0.7 5.2 1.6 6.6-0.1 0.3-0.3 0.8 0 0.6 0.4-0.8 1.7-1.3 4.4 1.2 4.6 1 0.1 2 0 3-0.1 0.4-0.7 0.9-1.3 1.4-1.8q-0.1 0.4-0.2 0.9-0.1 0.4-0.2 0.8c-0.6 1.2-0.9 2.5-0.3 3.8q0.4 0.6 0.8 1.2c0.8 1.4 2.2 2.3 3.8 2.8 0 0.5-0.4 1-0.8 1-3.8 0.4-5.1 6.3-3.5 9.1 2 3.6 6 5.3 9.6 3 0.5-0.3 0.8 0.3 0.6 0.7-1.9 3.8 1.7 6.5 5.1 6.4 0.3-0.8 0.8-1.7 1.4-2.4-0.7 1.7-1.4 4.1 0.1 5.6 0.7 0.8 1.9 1.1 3.3 1q0.6 0.2 1.2 0.3c4.6 0.8 8.1-2.7 10.5-6.1 0-0.2 0.3-0.2 0.4 0 0.2 2 0.8 3.6 3 4 1.8 0.3 3.6 0 4.8-1.4 0.3-0.3 0.7-0.1 0.7 0.3-0.1 3.1-0.2 5.7 2.5 7.7 1.3 1.1 2.8 1.8 4.6 1.8 3-0.1 5.9-1.4 7.6-3.8-0.1-1.7 0.6-3.5 1.5-5.2-0.2 1.1-0.2 2.3-0.2 3.3-0.3 2.3 0.3 4.3 3.5 4.9 1.4 0.3 3 0.4 4.4-0.3 0.8-0.3 3-1.1 3.4-1.9 0.2-0.4 0.9-0.7 1 0 0.2 3.1 3.9 3.8 6.4 3.9 3.2 0.1 5.3-1.7 5.4-4.9q0.1-0.2 0.2-0.4c0.4 0.4 0.9 0.7 1.4 0.9 1.2 0.8 2.8 0 3.2-1.5q0-0.1 0-0.2c0.4-0.7 0.6-1.6 0.7-2.5q0.2 0.4 0.4 0.7 0 0 0 0 0.1 0.1 0.1 0.1 0.7 0.7 1.5 1.1c1.1 0.6 2.4 0.9 3.8 0.8 3.1-0.2 3.3-3.8 3.9-6.1 0-0.2 0.2-0.3 0.3-0.2 1.6 1 3.8 1.4 5.7 1q0.2 0 0.4-0.1 0.1 0 0.3-0.1 0.1-0.1 0.3-0.1 0 0 0 0 0.3-0.2 0.6-0.4 0.2-0.1 0.4-0.2c0.7-0.5 1.3-1.1 1.7-1.8 1.2-1.8 1.3-3.7 1.1-5.6q0.5 0.2 1 0.3c0.8 0.3 1.8 0.1 2.7-0.3q0.1 0 0.2-0.1 0.9-0.4 1.5-1c1.1 1.5 4.5 2.1 5.9 1.9 3.3-0.5 4.1-3.3 3.9-6.1q0-0.6 0-1.2c-0.1-0.2 0.2-0.4 0.3-0.2 2.4 2.9 4.4-0.5 5-3.2q0.3-0.6 0.5-1.3c2.1 2.2 6.2 2.2 8.7 0.6 2.3-1.5 2.5-4.5 2.2-7.2 0.1-0.3 0.3-0.5 0.6-0.2 1.4 1.4 3.7 1.3 5.1-0.1 1.2-1.2 1.2-2.5 1.1-4.1q0 0 0 0c-0.7-0.8-1.1-1.9-0.7-3.2 0.4 3.1 4.8 4.1 7.7 2.6q1-0.4 1.7-1.2c1.4-1.5 2.8-3.8 2.6-5.9 0-0.4-0.3-1.9-0.4-2.7q-0.4-0.3-0.7-0.6 0-0.1 0-0.1c1.4 1.2 5 0 6.1-0.9 3.2-2.9 2.7-6.7 0.4-9.7 2.6 0.1 5.2-0.8 6.4-3.4 0.7-1.4 0.9-2.8 0.7-4.3q0-0.2-0.1-0.6c0.1-1.5-0.1-2.9-0.9-4.1q0.4 0.1 0.7 0.3c1.7-0.2 3.4-3.1 3.6-5.6 0.2-1.6-0.4-3.2-1.4-4.6 2.4-1.6 4.1-3.6 2.9-6.7-0.4-0.9-0.9-1.7-1.5-2.5z"/>
						<path id="Layer" class="s11" d="m154 91.8c-0.2 0.4-0.9 0.1-0.7-0.3 1.3-3.4-0.2-8.2-3.5-9.9-2.4-1.4-5.1-1.1-7.6-0.5 4 0.9 6.3 4.4 6.2 8.9 0 0.4-0.5 0.6-0.7 0.3-2.5-2.6-7.9-0.2-9.9 2-0.1 0.1-0.4 0.2-0.6 0-7.4-7.6-15.2 4.3-10 11.4 0.5-3.2 4.3-5.4 7.7-5.1 0.3 0.1 0.4 0.3 0.4 0.6-0.5 3-0.3 5.9 1.1 8.5-0.1-6.6 4.4-12.2 11.2-13.4 2.4-0.5 4.4 0 6.1 1.1 2.8-1.6 6-2.4 8.8-1.7-2.4-1.8-5.1-2.7-8.5-1.9z"/>
						<path id="Layer" class="s12" d="m229.5 94.8q-0.1 0.1-0.2 0.1-0.2-0.4-0.5-0.8c0.6-0.5 1.3-0.9 1.9-1.5 1.8-1.6 3.1-4.2 2.9-6.2-0.2-1-0.4-2.2-1-3.3q-0.3-0.8-0.8-1.4c-0.7-0.8-1.8-1.4-2.8-1.6-0.1-0.2 0.1-0.5 0.4-0.6 3.7-1.5-1.1-4.9-2.5-5.5-0.2-0.2-0.1-0.6 0.1-0.7 3.1-1.7 3-5 1.4-7.6 0.4 3-1.5 6.3-5.2 7.4-0.3 0-0.5-0.1-0.6-0.3-0.5-1.7-1.8-2.3-3.3-2.2 1.4 0.6 2.6 1.7 2.8 3.4 0.2 2-0.8 4-2.5 5.1-1.6 1.2-3.7 2-5.6 0.9-2.4-1.3-3.8-3.2-6.8-2.6-0.2 0.1-0.5 0-0.5-0.3-0.6-3.5 1.1-6.2 3.8-8-2.8 0.5-6.2 1.7-5.8 4.6 0.1 0.5-0.5 0.8-0.7 0.4-4.7-6.7-13.2 0.3-15.4 6.2 2.8-2.6 7.1-4.3 10.4-1.5 2 1.8 2.2 3.8 1.4 5.7 2.2-1.4 4.8-2.3 7.2-2.2 4.3 0.2 4.8 3.9 4 7.4 0 0.2-0.2 0.3-0.4 0.3-5-0.1-7.7 7-8.4 11.9 1.5-3.6 5.4-5.6 9.7-5.1 5.4 0.6 8.1 5.3 6.7 10.4-0.1 0.3-0.5 0.4-0.7 0.2-2.6-2.3-5.2-1.1-7.3 0.9 3.9 0.9 6.8 4 5.9 8.4-0.9 4.3-4.4 7.8-8.8 8.5-0.3 0.1-0.6-0.2-0.5-0.5 0.4-1.9 0.6-4.1-0.5-5.7-1.2 5.8-7.1 10.3-12.6 11.8-3.9 1.1-7.9 0.6-10.1-2.1-0.2 5.5-5.2 9.9-10.8 11.7-4.3 1.3-11.4 1.5-13.3-2.8-1.3 1.1-2.7 1.8-4 1.1-1.7 8.3-13.8 13.3-18.9 5.7-0.5 6-5.7 10.4-12 9.1-2.9-0.5-5.3-2.2-6.5-5-1.3-3-0.6-6.4 0.6-9.4-2.2 2.2-3.8 4.9-4.4 8-0.6 2.9-1 5.7-3.9 7.3-4 2.1-10.2 2.3-13-1.9-0.2-0.2 0-0.5 0.3-0.6 3.8-1.4 8.3-3.8 8.8-8.2-4.1 2.8-10.1 3.8-14.4 0.8-4.3-2.9-4-7.4-1.7-11.3-4.6 2.4-10.4 2.6-13.2-2.6-1.6-3-1.4-6.8 1.1-8.7-2.2 0.3-4.1 1.3-4.6 3.9-0.1 0.4-0.6 0.4-0.8 0.1-5.5-9 10.4-16.3 13.8-9.3 0.6-2.3 2.1-4.1 4.4-5.2 0.3-0.2 0.8 0.2 0.6 0.6-1.6 2.9-1.7 7.5 1.7 8.8-2.9-6.7 3.6-16.8 11.3-13.9 0.3 0.1 0.3 0.4 0.3 0.6 1.3 0.6 2.4 1.7 3.4 3q0-0.1 0-0.2c-2.4-4.7-3.3-10.8 1.2-14.2 1.7-1.3 3.7-1.9 5.8-2.2 0.6-0.7 1.1-1.6 1.3-2.5 0.3-2.1-0.1-4.2-1.8-5.6-0.2-0.2-0.1-0.5 0.1-0.7q0-0.1 0.2-0.2c5.2-2.4 8.6-12.7 1.9-15.4-0.3-0.1-0.4-0.3-0.3-0.6 1.8-3.4 2.9-10.2-2.3-11-0.3 0-0.3-0.4-0.2-0.6 0.9-2.1 1.7-4.6 0.9-6.9-0.7-2.2-2.8-4.3-5.3-4.3-2.9 0-5.9 1-8.7-0.1-4.2-1.7-5.5-5.4-3.9-8.9-4.2 1.1-6.7 7-4.7 11.1 0.3 0.5-0.3 1.3-0.9 1.1-2-0.7-4.2-1.4-5.8 0.6-0.6 0.6-0.9 1.2-1.2 1.9q0.1 0.1 0.3 0.3c0.2 0.3-0.2 1-0.6 0.7q0 0-0.1 0c-0.3 0.9-0.4 1.9-0.7 2.9q0 0.1-0.1 0.2 0 0.1-0.2 0.1 0 0 0 0 0 0 0 0-0.2 0-0.2-0.2c-0.3-1.1-0.2-2.4 0.1-3.7-1-0.4-2.1-0.5-3.1 0.6-0.8 0.9-1.6 2.1-1.6 3.5-0.1 2.2 0.7 4.2 1.5 6.3 0.2 0.5-0.2 1-0.7 0.9-3.1-0.4-5.7 1.4-6.7 4.4 0 0.3-0.5 0.6-0.8 0.4-3.5-2.9-10.2 2.2-12.4 4.9-1.3 1.6-2.6 3.8-2.8 5.9-0.2 2.3 0.6 3.8 1.7 5.7 0.3 0.6 0.9 1.5 0.8 2.1q0 0.3-0.2 0.5c-1.1 1.1-0.7 2.2-0.3 3.4 0.2 0.4-0.2 1-0.7 1.1-3 0.1-5.4 3.6-3.8 6.3 0.3 0.5-0.4 1.1-0.8 0.7q0-0.1-0.1-0.1 0-0.1 0-0.1c-2-2.3-5.8-4.2-8.8-3.1-4.8 1.7-4.2 6.7-0.2 8.7 0.3 0.2 0.1 0.6-0.2 0.6-5-0.4-10.9 3.2-10.2 9 0.4 2.7 2.3 4.3 4.6 5.4 1.8 0.9 4 2.5 6.1 1.9 0.5-0.1 0.5 0.5 0.2 0.7-1.6 1.2-4.1 5.1-0.6 5.3 0.6 0 0.5 0.8 0 1-4.3 1-8.8 7.6-6.2 11.9 1.3 2.2 3.2 4.3 5.6 5.3 1.6 0.7 5.2 1.6 6.6-0.1 0.3-0.3 0.8 0 0.6 0.4-0.8 1.7-1.3 4.4 1.2 4.6 1 0.1 2 0 3-0.1 0.4-0.7 0.9-1.3 1.4-1.8q-0.1 0.4-0.2 0.9-0.1 0.4-0.2 0.8c-0.6 1.2-0.9 2.5-0.3 3.8q0.4 0.6 0.8 1.2c0.9 1.4 2.2 2.3 3.8 2.8 0 0.5-0.4 1-0.8 1-3.8 0.4-5.1 6.3-3.5 9.1 2 3.6 6 5.3 9.6 3 0.5-0.3 0.8 0.3 0.6 0.7-1.9 3.8 1.7 6.5 5.1 6.4 0.3-0.8 0.8-1.7 1.4-2.5-0.7 1.8-1.4 4.2 0.1 5.7 0.7 0.8 2 1.1 3.3 1q0.6 0.2 1.2 0.3c4.6 0.8 8.1-2.7 10.5-6.1 0.1-0.2 0.3-0.2 0.4 0 0.2 2 0.8 3.6 3 4 1.8 0.3 3.6 0 4.8-1.4 0.3-0.3 0.7-0.1 0.7 0.3-0.1 3.1-0.2 5.7 2.5 7.7 1.3 1.1 2.8 1.8 4.6 1.8 3-0.1 5.9-1.4 7.6-3.8-0.1-1.7 0.6-3.5 1.5-5.2-0.2 1.1-0.2 2.3-0.2 3.3-0.3 2.3 0.3 4.3 3.5 4.9 1.4 0.3 3 0.4 4.4-0.3 0.8-0.3 3-1.1 3.4-1.9 0.2-0.4 0.9-0.7 1-0.1 0.2 3.2 3.9 3.9 6.4 4 3.2 0.1 5.3-1.7 5.4-4.9q0.1-0.2 0.2-0.4c0.4 0.4 0.9 0.7 1.4 0.9 1.2 0.8 2.8 0 3.2-1.5q0-0.1 0-0.2c0.4-0.7 0.6-1.6 0.7-2.5q0.2 0.4 0.4 0.7 0 0 0 0 0.1 0.1 0.1 0.1 0.7 0.7 1.5 1.1c1.1 0.6 2.4 0.9 3.8 0.8 3.1-0.2 3.3-3.8 3.9-6.1 0-0.2 0.2-0.3 0.3-0.2 1.6 1 3.8 1.4 5.7 1q0.2-0.1 0.4-0.1 0.1-0.1 0.3-0.1 0.1-0.1 0.3-0.1 0 0 0 0 0.3-0.2 0.6-0.4 0.2-0.1 0.4-0.2c0.7-0.5 1.3-1.2 1.7-1.8 1.2-1.8 1.3-3.7 1.1-5.6q0.5 0.2 1 0.3c0.8 0.3 1.8 0.1 2.7-0.3q0.1 0 0.2-0.1 0.9-0.4 1.5-1c1.1 1.5 4.5 2.1 5.9 1.9 3.3-0.5 4.1-3.3 3.9-6.1q0-0.6 0-1.2c-0.1-0.2 0.2-0.4 0.3-0.2 2.4 2.9 4.4-0.5 5-3.2q0.3-0.6 0.5-1.3c2.1 2.2 6.2 2.2 8.7 0.6 2.3-1.5 2.5-4.5 2.2-7.2 0.1-0.3 0.3-0.5 0.6-0.3 1.4 1.5 3.7 1.4 5.1 0 1.2-1.2 1.2-2.5 1.1-4.1q0 0 0 0c-0.7-0.8-1.1-1.9-0.7-3.2 0.4 3.1 4.8 4.1 7.7 2.6q1-0.4 1.7-1.2c1.4-1.5 2.8-3.8 2.6-5.9 0-0.4-0.3-1.9-0.4-2.7q-0.4-0.3-0.7-0.6 0-0.1 0-0.1c1.4 1.2 5 0 6.1-0.9 3.2-2.9 2.7-6.7 0.4-9.7 2.6 0.1 5.2-0.8 6.4-3.4 0.7-1.4 0.9-2.8 0.7-4.3q0-0.2-0.1-0.6c0.1-1.5-0.1-2.9-0.9-4.1q0.4 0.1 0.7 0.3c1.7-0.2 3.4-3.1 3.6-5.6 0.2-1.6-0.4-3.2-1.4-4.6 2.4-1.6 4.1-3.6 2.9-6.7-0.4-0.9-0.9-1.7-1.5-2.5z"/>
						<path id="Layer" class="s12" d="m41.2 113.8c0.2-0.1 0.6-0.1 0.6 0.2 0.4 2.2 2.3 3.7 4.3 4.3 2 0.5 4.7 0.5 4.9-2.1 0.1-0.3 0.5-0.6 0.8-0.3 3.5 3.8 8.6 4.3 11.4-0.5 0.3-0.5 1.1 0 0.8 0.4-2.5 3.8-0.5 6.9 2.5 9.4-0.5-2.6 0.2-5.2 2-7.2 0.9-1 1.9-2.2 3.2-2.6 0.6-0.1 1.3-0.3 1.9-0.5 2.4-0.9 2-3.7-0.5-3.9-0.6 0-0.6-0.9 0-0.8 5.6 0.7 10.5-1.3 12.6-6.8 0.1-0.3 0.4-0.4 0.7-0.2 5 4.8 11.3 1.1 12.3-5.1 0-0.2 0.2-0.3 0.4-0.4 5.1-0.3 13.3-3.1 10.8-9.8-0.1-0.1 0-0.3 0.2-0.4 3.2-2.2 6.2-7.1 2.1-9.9-0.3-0.2-0.3-0.5-0.1-0.7 3.8-4.4 0.6-11-4.9-11.7-0.2 0-0.3-0.4-0.2-0.6 2.7-4.4 2.3-10.1-1.1-14-1.8-1.9-4.3-3.8-7.1-3.9-1.9-0.1-3.7 0.2-5.5 0.7q0.2 0.4 0.3 0.8c0.3 0.5-0.3 1.3-0.9 1.1-0.8-0.3-1.6-0.5-2.4-0.6q-0.5 0.2-1.1 0.5c-0.3 0.2-0.6-0.2-0.6-0.5-0.6 0.2-1.2 0.5-1.7 1.2-0.5 0.6-0.9 1.2-1.2 1.9q0.1 0.1 0.3 0.3c0.2 0.3-0.2 1-0.6 0.7q0 0-0.1 0c-0.3 0.9-0.4 1.9-0.7 2.9q0 0.1 0 0.2-0.1 0.1-0.3 0.1 0 0 0 0 0 0 0 0-0.2 0-0.2-0.2c-0.3-1.1-0.2-2.4 0.1-3.7-1-0.4-2.1-0.5-3.1 0.6-0.8 0.9-1.6 2.1-1.6 3.5-0.1 2.2 0.7 4.2 1.5 6.3 0.2 0.5-0.2 1-0.7 0.9-3.1-0.4-5.7 1.4-6.6 4.4-0.1 0.3-0.6 0.6-0.9 0.4-3.5-2.9-10.2 2.2-12.4 4.9-1.3 1.6-2.6 3.8-2.8 5.9-0.2 2.3 0.6 3.8 1.7 5.7 0.3 0.6 0.9 1.5 0.8 2.1q0 0.3-0.2 0.5c-1 1.1-0.7 2.2-0.3 3.4 0.2 0.4-0.2 1-0.7 1.1-3 0.1-5.4 3.6-3.8 6.3 0.3 0.5-0.4 1.1-0.8 0.7q0-0.1-0.1-0.1 0-0.1 0-0.1c-2-2.3-5.8-4.2-8.8-3.1-4.8 1.7-4.2 6.7-0.2 8.7 0.3 0.2 0.1 0.6-0.2 0.6-4.7-0.4-10.2 2.8-10.2 8 1.8 1.4 4.2 2.1 6.4 1z"/>
						<path id="Layer" class="s12" d="m215.9 124.6c2.4 2 4.3 5.5 1.6 8.2-2.6 2.4-5.8 1.7-8.3-0.1 1.2 3.1 1.8 6.9-1.6 8.7-3 1.6-6.6 0.1-7.8-2.9-3.7 4.8-13 5.8-15.4 0.3-0.5 2.1-1.5 4.1-3 5.6-2.9 2.9-6.5 2.8-9.7 0.8q-0.9 1.4-2.2 2.3c3.5-0.2 7.6 0.1 9.7 2.4 1.1 1.3 2.1 3.5 0.8 5-1.3 1.5-3.2 2-5.1 2.2 2.3 2.5 2 6-1.2 7.9-3.6 2.2-7.4 1.2-9.9-1.7 0.1 4.3-1.6 8.7-6.5 9.2-5.5 0.7-6.2-4.1-7-8.4-5.1 4.8-19.7 10-18.9-0.5-2.3 1.8-5.3 3.3-8.2 2.7-2.9-0.6-4.7-2.7-5.8-5.4-1.8 4.1-6.8 7.3-10.5 4.3 0.2 2.5-1.1 5.3-3.5 6.3-2.3 0.9-3.2-0.5-3.3-2.3-2.8 4.3-9.1 6.2-11.5 0.7-2.4 2.5-5.8 4.4-9.3 2.8-2.3-1-4.7-3.6-4.5-6.4 0.2-2.9 3-3.7 5.4-2.7 1.2 0.5 2.3 1.2 3.6 1.4 2 0.4 4.7 0.2 6.5-0.7 2.5-1.2 4.1-3.1 5.1-5.5-2.8 2.2-6.6 3.2-9.6 0.7-3-2.5-3.3-6.2-2-9.6-2.5 2.3-5.1 4.9-4.1 8.5 0.1 0.3-0.2 0.6-0.5 0.5-6.4-1.1-6.9-7.4-3.7-11.7-4.4 2.3-7.6 7.4-6.4 12.4 0 0.4-0.4 0.7-0.8 0.4-2-1.7-2.6-3.9-2-6.3-2.8 1.9-6 2.6-8.7 1.5 0.8 1.3 2.1 2.1 3.6 2.6 0 0.5-0.4 1-0.8 1-3.8 0.4-5.1 6.3-3.5 9.1 2 3.6 6 5.3 9.6 3 0.5-0.3 0.8 0.3 0.6 0.7-1.9 3.8 1.7 6.5 5.1 6.4 0.3-0.8 0.8-1.7 1.4-2.4-0.7 1.7-1.4 4.1 0.1 5.6 0.7 0.8 2 1.1 3.3 1q0.6 0.2 1.2 0.3c4.6 0.8 8.1-2.7 10.5-6.1 0.1-0.2 0.3-0.2 0.4 0 0.2 2 0.8 3.6 3 4 1.8 0.3 3.6 0 4.8-1.4 0.3-0.3 0.8-0.1 0.7 0.3-0.1 3.1-0.2 5.7 2.5 7.7 1.3 1.1 2.8 1.8 4.6 1.8 3-0.1 5.9-1.4 7.6-3.8-0.1-1.7 0.6-3.5 1.5-5.2-0.2 1.1-0.2 2.3-0.2 3.3-0.3 2.3 0.3 4.3 3.5 4.9 1.5 0.3 3 0.4 4.4-0.3 0.8-0.3 3-1.1 3.4-1.9 0.2-0.4 0.9-0.7 1 0 0.2 3.1 3.9 3.8 6.5 3.9 3.1 0.1 5.2-1.7 5.3-4.9q0.1-0.2 0.2-0.4c0.4 0.4 0.9 0.7 1.4 0.9 1.2 0.8 2.8 0 3.2-1.5q0-0.1 0-0.2c0.4-0.7 0.6-1.6 0.7-2.5q0.2 0.4 0.4 0.7 0.1 0 0.1 0 0 0.1 0 0.1 0.7 0.7 1.5 1.1c1.1 0.6 2.4 0.9 3.8 0.8 3.1-0.2 3.3-3.8 3.9-6.1 0-0.2 0.2-0.3 0.4-0.2 1.5 1 3.7 1.4 5.7 1q0.1 0 0.3-0.1 0.2 0 0.3-0.1 0.2-0.1 0.3-0.1 0 0 0 0 0.3-0.2 0.7-0.4 0.1-0.1 0.3-0.2c0.7-0.5 1.3-1.1 1.7-1.8 1.2-1.8 1.3-3.7 1.1-5.6q0.5 0.2 1 0.3c0.8 0.3 1.8 0.2 2.8-0.3q0.1 0 0.1-0.1 0.9-0.4 1.5-1c1.1 1.5 4.5 2.1 5.9 1.9 3.3-0.5 4.1-3.3 3.9-6.1q0-0.6 0-1.2c-0.1-0.2 0.2-0.4 0.3-0.2 2.5 2.9 4.4-0.5 5-3.2q0.3-0.6 0.5-1.3c2.1 2.2 6.2 2.2 8.7 0.6 2.3-1.5 2.5-4.5 2.2-7.2 0.1-0.3 0.4-0.5 0.6-0.2 1.4 1.4 3.7 1.3 5.1-0.1 1.2-1.2 1.2-2.5 1.1-4.1q0 0 0 0c-0.7-0.8-1.1-1.9-0.7-3.2 0.4 3.1 4.8 4.1 7.7 2.6q1-0.4 1.7-1.2c1.4-1.5 2.8-3.8 2.6-5.9 0-0.4-0.3-1.9-0.4-2.7q-0.4-0.3-0.7-0.6 0-0.1 0-0.1c1.5 1.2 5 0 6.1-0.9 3.2-2.9 2.7-6.7 0.4-9.7 2.6 0.1 5.2-0.8 6.4-3.4q0.5-0.8 0.6-1.7c-3 1.9-6.5 3.1-10.2 3.4z"/>
					</g>
					<g id="Layer">
						<path id="Layer" class="s0" d="m140.5 169.3c-1.6 0-3.2 0-4.8-0.2-1-0.1-1.8-0.4-2.6-0.9-0.3-0.2-2.3-2.4-2.4-3q0.9-0.8 1.6-1.7c0.2-0.3-0.1-0.6-0.3-0.4-2.6 2.3-5.4 2.8-8.7 2.3-3.6-0.4-7.4-4.5-5.1-8.1 0 0 0 0-0.1 0-1.4 1.4-1.7 3.2-1.3 4.9q-0.2 0.1-0.2 0.2c-0.7 1.7-1.6 3.4-3.1 4.6-1.7 1.5-4.4 2.7-6.5 1.5 0 0 0 0 0 0.1 1.9 2.3 4.6 1.9 6.8 0.4 3.3 7.5 4.9 15.3 6.3 23.4 1.4 8.4 1.7 16.7 1.7 25.3-1.5 2.2-3.8 3.7-5.4 5.9-1.9 2.5-3.5 5.2-3.9 8.4-0.3 2-1.1 4.3 1.2 5.5 1.9 1.1 3.9 1.5 5.8 0.8 2.2 1.8 7.2 1.5 9.4 0.6 3.6-1.3 4.6-4.8 5.1-8.4 0.2-2.1-0.2-4.2-0.4-6.3-0.4-2.6-0.1-5-0.1-7.6 1.4-6.9 2-14.1 2-21.1 0-4.8 0.1-9.8-0.5-14.6-0.4-3.7-1.3-7.3-2.3-10.9q0.2 0.1 0.4 0.1c2.4 1.2 5 0.8 7.4 0 0.4-0.1 0.5-0.9 0-0.8z"/>
						<path id="Layer" class="s1" d="m130.2 236.3c-1.3 1.3-3.8 1.2-5.5 1.2-2 0-4.1-0.2-4.9-2.3-0.6-1.8-0.1-4.7 0.3-6.4 0.2-0.9 0.8-1.4 0.4-2.2 0-0.1-0.1 0-0.1 0.1 0.1 0.5-1 2.1-1.2 2.6-0.4 0.9-0.4 2-0.8 2.9-0.5 1.7-0.5 3.3 0.2 4.8-2.3-0.1-5.1-0.6-4.8-3.1 0.3-2.4 1.2-4.9 2.4-7 1.3-2.1 3-3.9 4.5-5.8-0.1 0.4-0.1 0.9 0.1 1.3 0.9 1.7 2.8 2.2 4.6 2.7 1.8 0.5 4.5 0.6 6-0.7q0.3-0.3 0.5-0.6 0.1 1.1 0.3 2.2c0.4 3.1 0.5 7.9-2 10.3z"/>
						<path id="Layer" class="s7" d="m123.8 232c0.5-2.4 0.9-4.7 1.6-6.9q-0.6-0.2-1.2-0.4 0 0.1-0.1 0.2-2.7 3.8-4 8-0.2 0.9-0.4 1.9 0 0.2 0.1 0.4c0.5 1.5 1.8 2 3.2 2.2 0.1-1.8 0.5-3.6 0.8-5.4z"/>
						<path id="Layer" class="s2" d="m116.9 236q0.3-2.1 0.9-4.1c0.8-3 1.8-6.1 3.7-8.6q-0.4-0.4-0.6-0.9c-2.3 2.7-4.2 5.6-5.5 9.1-0.5 1.2-0.9 2.5-1.3 3.9 0.5 0.8 1.5 1.2 2.7 1.4q0.1-0.4 0.1-0.8z"/>
						<path id="Layer" class="s3" d="m119.2 229.3c0.1-0.2 0.4-0.6 0.6-1.1-1.8 2.5-2.8 5.5-3.2 8.6 0.6 0.1 1.3 0.2 2 0.2-0.7-1.5-0.7-3.1-0.2-4.8 0.4-0.9 0.4-2 0.8-2.9z"/>
						<path id="Layer" class="s3" d="m132.2 226q-0.2-1.1-0.3-2.2-0.2 0.3-0.5 0.6c-1.5 1.3-4.2 1.2-6 0.7-1.3-0.4-2.7-0.7-3.7-1.6 0.8 0.9 2 1.7 2.9 1.9 1.4 0.3 2.8 0.4 4.2 0.4 0.3 0 0.6 0.2 0.6 0.5 0.1 3.8-0.5 7.6-2 11.1 1.1-0.1 2.1-0.5 2.8-1.1 2.5-2.4 2.4-7.2 2-10.3z"/>
						<path id="Layer" class="s4" d="m133.3 180.5c0.2 4.8 0.1 9.7 0 14.6-0.1 9.2-1.3 18.2-2.2 27.3-1.2 1.7-4.4 0.8-6 0.3-1-0.3-2.8-0.7-2.9-2.1 0-0.7 0.2-1.4 0.3-2.1q0 0 0-0.1c1.6-8.4 0.3-17.4-1.1-25.7-1.5-8.3-3.6-16.3-7.4-23.8 1.7-1.3 3-3.3 3.2-5.3 0.7 1.3 1.8 2.4 3.1 3.1 3.4 1.5 7.3 0.9 10.1-1.3-0.4 1.6 0.5 3.3 1.9 4.3 0.4 3.5 0.8 7.1 1 10.8z"/>
						<path id="Layer" class="s5" d="m133.3 180.5c-0.2-3.7-0.6-7.3-1-10.8-1.4-1-2.3-2.7-1.9-4.3-2.8 2.2-6.7 2.8-10.1 1.3-1.3-0.7-2.4-1.8-3.1-3.1-0.2 2-1.5 4-3.2 5.3 3.8 7.5 5.9 15.5 7.4 23.8 1.4 8.3 2.7 17.3 1.1 25.7q0 0.1 0 0.1c-0.1 0.7-0.3 1.4-0.3 2.1 0.1 1.1 1.3 1.6 2.3 1.9 0.4-3.9 0.9-7.9 1.5-11.8-0.3-12.4-1.1-21.2-2.3-32.2-0.5-5.2 1.7-8.1 3.2-6.7 6 5.2 5.6 15.6 5.3 22.8-0.2 5.5-1 10.9-1.7 16.3 0.1 4.1-0.1 8.3-1 12.4 0.6-0.1 1.2-0.4 1.6-0.9 0.9-9.1 2.1-18.1 2.2-27.3 0.1-4.9 0.2-9.8 0-14.6z"/>
						<path id="Layer" class="s6" d="m120.1 170.8c0.1-0.2 0.3-0.2 0.4-0.1 1.9 1.1 3.3 0.4 5.2-0.3 1.2-0.4 2.3-0.5 3.5-0.1 1.4 0.5 2.5 1.4 3.4 2.4q-0.2-1.5-0.3-3c-1.4-1-2.3-2.7-1.9-4.3-2.8 2.2-6.7 2.8-10.1 1.3-1.3-0.7-2.4-1.8-3.1-3.1-0.2 2-1.5 4-3.2 5.3q1.3 2.7 2.4 5.5c1.6-0.7 2.9-2.1 3.7-3.6z"/>
					</g>
					<path id="Layer" class="s13" d="m151.2 44.5q0 0.1 0.1 0c1.1-3.9 4.5-7.4 8.4-6.8-2.7-1.3-6 0.2-7.6 2.8-1.8-2-4.5-2.7-7.3-2.2-1.3 0.3-2.6 0.9-3.8 1.7q-0.8 1-1.4 2.1c1.1-1.2 3-1.7 4.5-2.1 2.8-0.6 5.1 0.4 7.4 1.7-0.3 0.9-0.4 1.8-0.3 2.8z"/>
					<path id="Layer" class="s13" d="m213.5 90c1.2-2.5 1.4-6.3-0.9-8.3-1.4-1.2-3-1.9-4.9-2.1-0.7-0.1-1.4 0.1-2.1 0.4q-0.3 0.1-0.5 0.3c0.9-3.2-2.1-6.3-5.1-6.6-3.3-0.3-6.8 1.4-8.1 4.5 0 0.1 0.1 0.1 0.1 0 1.4-2.3 4.3-3.6 6.9-3.4 3.7 0.3 5.1 3.2 5.3 6.5 0 0.3 0.4 0.2 0.5 0 1.2-2.6 6.5 0.7 7.4 1.9 1.4 1.9 1.6 4.7 0.8 6.8q-0.2 0.1-0.3 0.1c-3.6 0.2-5.1 3.1-6.4 5.9 0 0.1 0.1 0.1 0.1 0.1 1.5-2 2.5-3.3 5-4 3.2-0.8 5.1 0.8 7.1 3.1 0.2 0.2 0.6 0 0.6-0.3-0.5-3.3-2.5-4.8-5.5-4.9z"/>
					<path id="Layer" class="s13" d="m79.1 134.3c-2.2-0.3-4.2-1.2-4.9-3.4-0.7-2.6 1.1-4.3 2.1-6.3 0-0.1-0.1-0.2-0.2-0.1-0.3 0.3-0.8 0.5-1.1 0.9-0.6 0.6-1.1 1.3-1.5 2.1-0.3 0.5-0.5 1.1-0.7 1.8q0-0.1-0.1-0.1c-1.7-0.3-3.3-0.7-4.3-2.2-1.2-1.7-1.2-4-0.9-6 0.5-3.2 2.2-5.8 4.7-7.6 0-0.1 0-0.1 0-0.1-3.5 1.7-6 5.3-6.1 9.3 0 4.3 1.8 7.8 6.5 7.2q0.1 0 0.2 0-0.2 0.9 0 1.7c0.8 2.9 3.6 3.4 6.3 3.1 0.1 0 0.2-0.2 0-0.3z"/>
					<path id="Layer" class="s13" d="m91.1 158.9c-1.5 1.8-3.7 2.3-5.8 1.4-2.3-1.1-2.3-3.1-2.3-5.3 0-0.1-0.2-0.1-0.2 0-0.2 1.3-0.6 2.8-0.3 4.1q0.1 0.5 0.5 0.9c-3.3 2.4-8 0.5-9.5-3.1-0.7-1.6-0.7-3.6-0.3-5.4 0.4-2.2 1.7-3.4 3.2-5 0 0 0-0.1-0.1 0-1.1 0.9-1.6 0.8-2.5 2-0.7 0.9-1.2 2-1.5 3-0.8 2.5-0.5 5.1 0.7 7.4 1.8 3.6 7.7 4.6 10.3 1.5 0.6 0.5 1.3 1 1.9 1.2 2.5 1.1 5.1-0.2 6.2-2.5 0.1-0.3-0.2-0.4-0.3-0.2z"/>
					<path id="Layer" class="s13" d="m146.4 89.6c-2.9-1.5-5.8-0.9-7.9 1.6q-0.5 0.6-0.9 1.3c-1.5-2.5-5.4-2.2-7.9-1.1-3.2 1.4-5.8 4.5-5.5 8.2 0 0 0.1 0 0.1-0.1 0.2-3.7 3-5.9 6.4-6.8 1.5-0.4 2.9-0.5 4.3 0.3 0.7 0.4 1.3 1 1.9 1.5q-0.1 0.3-0.1 0.7c-0.1 0.7-0.5 2.2 0.2 2.7 0.1 0 0.2-0.1 0.2-0.2-0.2-0.7 0.6-2.3 0.9-2.9 0.5-0.9 1.2-1.8 2-2.5 1.5-1.3 3.8-1.5 5.8-1.3 0.7 0 1.2-1 0.5-1.4z"/>
					<g id="Layer">
						<path id="Layer" class="s0" d="m207 145.6c-1.6 0.1-3.1 0.1-4.7-0.1-1-0.1-1.8-0.4-2.6-0.9-0.2-0.1-2.2-2.2-2.2-2.8q0.8-0.7 1.5-1.6c0.1-0.2-0.1-0.5-0.3-0.3-2.5 2.1-5.3 2.6-8.5 2.2-3.4-0.5-7.2-4.3-4.9-7.6 0-0.1 0-0.1-0.1-0.1-1.3 1.3-1.7 3-1.3 4.7q-0.1 0-0.2 0.1c-0.7 1.6-1.6 3.2-2.9 4.4-1.7 1.4-4.3 2.5-6.4 1.3 0 0 0 0.1 0 0.1 1.8 2.2 4.5 1.9 6.6 0.4 3.2 7 4.8 14.4 6.1 21.9 1.4 8 1.7 15.7 1.7 23.7-1.4 2.2-3.7 3.5-5.3 5.6-1.8 2.4-3.3 4.9-3.8 7.9-0.3 1.8-1 4 1.2 5.2 1.8 0.9 3.8 1.4 5.6 0.6 2.2 1.8 7 1.5 9.2 0.7 3.5-1.3 4.5-4.5 4.9-7.9 0.2-2-0.1-4-0.4-5.9-0.3-2.4-0.1-4.7-0.1-7.1 1.4-6.5 1.9-13.3 2-19.9 0-4.5 0-9.1-0.5-13.6-0.4-3.5-1.3-6.9-2.2-10.3q0.2 0.1 0.3 0.2c2.4 1 4.9 0.7 7.3-0.1 0.3-0.1 0.4-0.8 0-0.8z"/>
						<path id="Layer" class="s1" d="m196.9 208.5c-1.3 1.2-3.7 1.2-5.3 1.2-1.9 0-4-0.3-4.8-2.2-0.6-1.7-0.1-4.4 0.3-6.1 0.2-0.7 0.8-1.3 0.4-2 0-0.1-0.1 0-0.1 0.1 0.1 0.4-0.9 2-1.1 2.5-0.4 0.8-0.5 1.8-0.8 2.7-0.6 1.5-0.5 3 0.1 4.5-2.1-0.1-4.8-0.6-4.6-3 0.3-2.2 1.2-4.5 2.4-6.5 1.2-2 2.8-3.6 4.3-5.5-0.1 0.5 0 0.9 0.1 1.3 0.9 1.6 2.8 2 4.5 2.5 1.8 0.5 4.3 0.6 5.8-0.7q0.3-0.2 0.5-0.5 0.1 1 0.3 2c0.3 3 0.5 7.4-2 9.7z"/>
						<path id="Layer" class="s7" d="m190.7 204.5c0.5-2.2 0.9-4.4 1.6-6.5q-0.6-0.2-1.2-0.3 0 0.1-0.1 0.2-2.7 3.5-3.9 7.4-0.2 0.9-0.4 1.8 0.1 0.2 0.1 0.4c0.6 1.4 1.8 1.9 3.1 2.1 0.2-1.7 0.5-3.4 0.8-5.1z"/>
						<path id="Layer" class="s2" d="m184.1 208.2q0.2-1.9 0.8-3.8c0.8-2.9 1.8-5.7 3.6-8.1q-0.4-0.3-0.6-0.8c-2.2 2.6-4.1 5.3-5.3 8.5-0.5 1.1-1 2.4-1.3 3.6 0.5 0.8 1.5 1.2 2.6 1.4q0.1-0.4 0.2-0.8z"/>
						<path id="Layer" class="s3" d="m186.3 202c0.1-0.2 0.3-0.7 0.6-1.1-1.8 2.4-2.8 5.1-3.2 8 0.6 0.2 1.3 0.2 1.9 0.3-0.6-1.5-0.7-3-0.1-4.5 0.3-0.9 0.4-1.9 0.8-2.7z"/>
						<path id="Layer" class="s3" d="m198.9 198.8q-0.2-1-0.3-2-0.2 0.3-0.5 0.5c-1.5 1.3-4 1.2-5.8 0.7-1.3-0.3-2.6-0.7-3.6-1.5 0.8 0.9 1.9 1.6 2.8 1.8 1.3 0.3 2.7 0.3 4.1 0.3 0.3 0 0.5 0.3 0.5 0.6 0.2 3.5-0.4 7.1-1.8 10.4 1-0.2 1.9-0.5 2.6-1.1 2.5-2.3 2.3-6.7 2-9.7z"/>
						<path id="Layer" class="s4" d="m199.9 156.2c0.2 4.5 0.1 9.1 0.1 13.7-0.1 8.6-1.3 17.1-2.2 25.6-1.2 1.6-4.3 0.7-5.8 0.3-1-0.3-2.7-0.7-2.8-2 0-0.6 0.1-1.3 0.2-1.9q0.1-0.1 0.1-0.2c1.5-7.9 0.3-16.3-1.1-24.1-1.4-7.8-3.5-15.3-7.2-22.3 1.6-1.2 2.9-3.1 3.2-4.9 0.6 1.2 1.6 2.2 3 2.8 3.2 1.4 7 0.9 9.8-1.1-0.5 1.5 0.4 3 1.7 3.9 0.4 3.4 0.9 6.8 1 10.2z"/>
						<path id="Layer" class="s5" d="m199.9 156.2c-0.1-3.4-0.6-6.8-1-10.2-1.3-0.9-2.2-2.4-1.7-3.9-2.8 2-6.6 2.5-9.8 1.1-1.4-0.6-2.4-1.6-3-2.8-0.3 1.8-1.6 3.7-3.2 4.9 3.7 7 5.8 14.5 7.2 22.3 1.4 7.8 2.6 16.2 1.1 24.1q0 0.1-0.1 0.2c-0.1 0.6-0.2 1.3-0.2 1.9 0.1 1.1 1.2 1.5 2.2 1.8 0.4-3.7 0.9-7.4 1.4-11.1-0.3-11.6-1-19.8-2.2-30.2-0.5-4.9 1.6-7.6 3.1-6.3 5.8 4.9 5.5 14.7 5.2 21.4-0.3 5.1-1 10.2-1.7 15.3 0.1 3.9-0.1 7.8-0.9 11.7 0.6-0.2 1.1-0.4 1.5-0.9 0.9-8.5 2.1-17 2.2-25.6 0-4.6 0.1-9.2-0.1-13.7z"/>
						<path id="Layer" class="s6" d="m187.1 147.1c0.1-0.2 0.3-0.2 0.4-0.1 1.9 1 3.3 0.4 5.1-0.2 1.1-0.4 2.2-0.6 3.3-0.2 1.4 0.5 2.5 1.3 3.4 2.3q-0.2-1.4-0.4-2.9c-1.3-0.9-2.1-2.4-1.7-3.9-2.8 2-6.6 2.5-9.8 1.1-1.4-0.6-2.4-1.6-3-2.8-0.3 1.8-1.6 3.7-3.2 4.9q1.3 2.5 2.4 5.1c1.5-0.6 2.7-1.9 3.5-3.3z"/>
					</g>
				</g>
				<g id="Layer">
					<g id="Layer">
						<path id="Layer" class="s0" d="m135.4 63.7c-0.6-0.7-1.3-1.2-1.9-1.8-1-1.2-1.4-3-1.9-4.5-1.4-4.3-3-8.9-6.6-11.8-2.8-2.4-6.2-4-9.7-5 0.6-1.6 0.6-3.4 0.1-5.3-1.1-3.8-4.5-4.5-7.8-4.5 1.6-2.6 1.1-5.8-2.2-7-0.5-0.2-1-0.3-1.6-0.3-0.1-2.4-2.4-3.7-4.8-4.2-1.8-0.4-3.8 0.3-5.4 1.4 0.4-3.6-1.1-6.8-4.5-9.1-3.4-2.3-8.4-2.1-11.3 0.8-2-2.2-3.7-4-7-3.7-2.3 0.2-4.1 1.3-5.4 3-1.5-2.4-4.6-2.5-7.3-1.6-1.8 0.6-3.1 1.9-3.8 3.4-4.7-4.1-12.1 3.7-8.7 7.1-1.8 0.2-3.4 0.8-4.9 1.7-5.8 0.2-11.7 0.1-17.3 2.1-3.2 1.1-6.1 3-8.8 5-2.6 2-5.2 4.4-6 7.6 0 0.1 0 0.3 0.1 0.3 1.7 1 3.7 1 5.5 1.4 2 0.5 4 1 6.1 1.3 3.9 0.5 8 0.6 11.8-0.7q-0.3 0.8-0.3 1.7c-0.1 1.1 0.2 2.2 0.6 3.2-5.5-1.2-12.7 8.1-9.2 11.1-2.9 2.3-3.7 6.5 0.2 8.3q-0.5 0.7-1 1.5c-3.5 5.4-5.6 11.3-4.4 17.6 1.1 5.7 4.8 10.7 8.9 14.6 8.1 7.8 19.9 12.1 31.1 11.6 9.7-0.3 18.5-4.8 24.6-12 1.1 1.6 3.1 1.8 5 1.6 2-0.3 3.1-1.9 3.8-3.7 4.6 2.4 10.4-1.8 11.8-6.4 1.6 0.3 3.1 0.1 4.5-1.1 1.1-0.9 1.9-2.2 1.8-3.6 3 0.8 5.9-1.5 7.5-3.9 0.9-1.3 1.2-3 0.9-4.6-0.5-2-1.4-2.9-2.9-3.6 2.1-1.6 2.3-4.6 0.9-6.8q1.5 0.7 3 1.3c2.9 1 5.7 0.9 8.8 0.6 2.2-0.3 5.7-0.4 7.4-2 0.2-0.2 0.5-0.7 0.3-1z"/>
						<path id="Layer" class="s8" d="m23.3 63.5c1.4-1.6 2.6-3.4 4-5.1 2.7-3.4 5.5-6.7 8.4-9.9 2.9-3.2 5.9-6.4 9.2-9.2 2-1.6 4.5-1.8 7-1.7q0.2 0 0.4 0.1 0.3 0 0.6 0c0.3 0.1 0.6 0.3 0.6 0.6 1.3 0.6 2.8 0.8 4.2 1.2 1.5 0.5 3.1 1.6 4.5 2.3 3.5 1.9 7 3.9 10.5 5.8 1.9 1.1 3.9 2.3 5.9 3.3 1.9 1 4.3 2.6 6.4 2.5 2.1-0.1 3.8-1.2 5.8-1.7 1.8-0.4 3.4-0.9 5.1-1.8q0.1 0 0.2 0c-0.4-2.2-0.6-4.4-0.5-6.6 0.3-4 3.1-8.3 7-9.5 1.5-0.5 3.7-0.9 5.1 0.2 1.7 1.3 2.5 3.5 4.3 4.7q0.1 0.1 0.2 0.2c1 0.6 2 1.2 3.2 1.5 0.5-1.5 0.5-3.2 0-5.1-1.1-3.8-4.5-4.5-7.8-4.5 1.6-2.5 1.1-5.8-2.2-7-0.5-0.2-1-0.3-1.6-0.3-0.1-2.4-2.4-3.7-4.8-4.2-1.8-0.4-3.8 0.3-5.4 1.5 0.4-3.7-1.1-6.9-4.5-9.2-3.4-2.3-8.4-2.1-11.3 0.8-2-2.2-3.7-4-7-3.7-2.3 0.2-4.1 1.3-5.4 3-1.5-2.4-4.6-2.5-7.3-1.6-1.8 0.6-3.1 1.9-3.8 3.4-4.7-4.1-12.1 3.7-8.7 7.1-1.8 0.2-3.4 0.9-4.9 1.7q-0.3 0.1-0.7 0.1 0.7 0 1.3 0c1.4-0.1 5.9-0.3 6.6-1.9 0.6-1.3 2.2-3.6 4-2.1q0.3 0.3 0.6 0.7c1.2 0.7 1.3 1.8 1 2.9 0 0.7 0 1.4-0.2 2-1.2 3.2-3.9 4.5-6.9 5.7-0.3 0.2-0.6 0.1-0.9-0.2q-0.5 0.4-1 0.9c-1.2 1.3-2.4 2.7-3.7 3.9q0 0.3-0.3 0.5c-2.6 1.9-5.5 3.2-8.4 4.5q0 0 0 0-0.3 0.8-0.3 1.7c-0.1 1.1 0.2 2.2 0.6 3.2-5.5-1.2-12.7 8.1-9.2 11.1-2.9 2.3-3.7 6.4 0.1 8.2z"/>
						<path id="Layer" class="s8" d="m117.9 75.2c-0.5-2-1.4-2.9-2.9-3.7 1.9-1.3 2.2-3.9 1.3-6q-0.9-0.7-1.7-1.4c-0.7 0.6-1.4 1.1-2.1 1.8-1.3 1.3-2.4 2.8-3.4 4.3-0.2 0.3-0.7 0.5-1 0.2-0.9-0.5-1.8-0.9-2.7-1.4-0.3 2.9-2.5 5.7-4.2 7.9-2.3 3.1-5 5.7-7.7 8.5-1.7 1.7-3.1 3.6-4.5 5.6-0.8 1.1-1.6 2.2-2.7 3-1.4 1-2.6 1.9-3.6 3 1.1 1.5 3 1.7 4.9 1.5 2-0.3 3.1-1.9 3.8-3.7 4.6 2.4 10.4-1.8 11.8-6.4 1.6 0.3 3.1 0.1 4.5-1.1 1.1-0.9 1.9-2.2 1.8-3.6 3 0.8 5.9-1.5 7.5-3.9 0.9-1.3 1.2-3 0.9-4.6z"/>
						<path id="Layer" class="s4" d="m32.7 36.7c-5.4 1.8-11.1 1.6-17.1 0.7q-1.4-0.2-2.7-0.4c-0.6 0-3.8 0.4-3.2-1.2 0.7-2 2.5-3.6 4.1-4.9 3.1-2.4 6.6-4.6 10.4-5.6 2.5-0.7 5.1-1 7.8-1.1 2.1-0.3 4.3-0.6 6.5-0.5q0 0 0 0c1-0.2 2.1-0.2 3.1-0.2q0.3-0.1 0.6-0.1 0.4-0.1 0.9-0.1 2.1-0.3 4-1 0.1-0.1 0.1-0.1c0.1 0.6 0.4 1.1 1.1 1.5q0 0 0.1 0-0.1 0.2-0.2 0.4-0.1 0.2-0.2 0.4-0.4 0-0.7 0c-0.8 0.4-1.5 1.1-2.1 1.8-0.8 0.9-1.4 1.9-1.9 2.9-0.7 1.1-1.6 2.1-2.6 2.9-0.9 1-2.1 1.8-3.2 2.5-0.3 0.2-1 0.6-1.6 0.8q-0.4 0.2-0.8 0.4c-0.5 0.2-1.6 0.9-2.4 0.9z"/>
						<path id="Layer" class="s4" d="m51.7 107.2c-11.9-1.4-24.7-9.2-30.4-20-7.8-15.1 7.3-28.4 16.9-38.4 3.4-3.6 6.8-7.3 10.1-11 1.9-0.7 3.2-2.2 4-4 0.4 0.8 1.3 1.4 2.1 1.9 1.7 1.1 3.6 1 5.2 0.1-0.1 1.7 1.3 3.1 3.1 4.1 3.1 1.7 7 2.5 10.1 0.4 1.1-0.8 2.1-1.6 3.1-2.5q0.2-0.2 0.4-0.3c-0.7 1.7-0.1 3.2 1 4.6 2.2 2.8 5.9 3.6 8.8 2.2-0.6 1.4-0.5 3.1 0.3 4.7 1.5 3 4.7 2.7 7.5 2.3-1 14.3-1.4 29.5-9.6 41.5-7 10.1-20.5 15.9-32.6 14.4z"/>
						<path id="Layer" class="s4" d="m41.5 69c3.7-1 6.7-4 8.3-7.6 1.4-3.4 2.8-6.8 3.7-10.4 0.5-1.8 1.1-3.7 0.9-5.5-0.1-2.2-1.4-5.2-4.2-4.5q-0.2 0.1-0.4 0c-1.8 0.6-4.9 2.1-5.7 4 1.9-0.1 4.1-1.1 5.8-0.2 1.6 0.9 2.4 2.4 1.8 4.2-0.1 0.3-0.5 0.5-0.7 0.2-3.2-3.8-7.9-0.8-11.1 1.5-3.7 2.7-7.2 6.5-8.3 11.1 0 0.2-0.2 0.3-0.3 0.3q-1.1 0.2-2.1 0.5c3.2 2.3 5.5 5.6 6.7 9.4 0.2-0.5 0.7-2.9 0.7-2.9 1.7 0.4 3.4 0.4 4.9-0.1z"/>
						<path id="Layer" class="s4" d="m69.9 50.4c-0.5 0.9 0.3 0.7 0.9 0.7 0.6-0.1 1.6-0.3 2.1 0.3 0.5 0.5-0.3 1.5-0.7 1.9-1.9 1.6-4 2.7-5.8 4.6-3.7 3.9-8.4 12.8-3.5 17.6 1.1 1 3.2 1.3 3.9 2.6 0.5 0.7-0.1 2-0.6 3.1 2.4-2.2 4.5-4.6 8-4.7q1.3-0.1 2.4 0c1.3 0 2.6 0.1 3.8 0.4-0.5-0.6-1.1-1.1-1.8-1.5-0.1-0.2-0.4-0.3-0.4-0.6-0.3-1.1 0.3-2 0.8-3 1.9-4 2.7-9.6 0.9-13.7-0.7-1.7-1.8-2.8-2.9-4.3-0.2-0.4-0.6-1-0.2-1.4 1.1-1 2.3 0.1 3.2 1.1 0-2-0.1-4.2-1.4-5.8q-0.1-0.1-0.1-0.2c-1.4-0.1-2.9-0.3-4.1-0.8q0 0.2-0.2 0.3c-1.7 0.6-3.5 1.8-4.3 3.4z"/>
						<path id="Layer" class="s4" d="m86.4 49c-0.8-1.6-0.9-3.3-0.3-4.7-2.9 1.4-6.6 0.6-8.8-2.2-1.1-1.4-1.7-2.9-1-4.6q-0.2 0.1-0.4 0.3c-1 0.9-2 1.7-3.1 2.5-3.1 2.1-7 1.3-10.1-0.4-1.8-1-3.2-2.4-3.2-4.1-1.5 0.9-3.4 1-5.1-0.1-0.8-0.5-1.7-1.1-2.1-1.9-0.8 1.8-2.1 3.4-4 4q-0.7 0.8-1.4 1.6c1.9 0.9 4.8-0.4 6.3-1.5 0.2-0.1 0.6 0 0.6 0.3 0.5 2.1 2.5 3.1 4.5 2.8 0.3 0 0.5 0.1 0.6 0.4 0.5 6.3 10.1 3.1 13.8 2 0.2-0.1 0.5 0.1 0.5 0.4 0 3.4 7.1 2.8 9.3 2.8 0.3 0 0.5 0.3 0.4 0.6-0.6 2.7 0.3 7.4 4.1 6.5 0.2 0 0.5 0.1 0.5 0.3 0.4 2.6 0.2 5.3 0 7.9-0.2 2.6-0.2 5.2-0.5 7.8-0.5 4.7-0.8 8.1-3 15-1.4 4.3-4 8.2-7.2 11.4-3 3-7.7 5.5-11.7 6.7-8 2.3-7.4-0.5-1.6-2.4 2.5-0.9 6.1-3.9 6.9-6.3 0.1-0.3 0.3-0.4 0.6-0.3 1.9 0.2 3.5-0.9 4.4-2.5-3.8 1.5-9-0.1-9.9-4q-0.2 0.5-0.4 0.9c-0.5 1.8 0.1 2.7 1.5 3.8 0.6 0.4 1.4 1.1 1.2 1.9-0.4 2.7-5.7 4.2-7.7 4.7-3.3 0.9-5.9 2.1-9.4 1.4-3.4-0.8-5.1-0.9-7.8-6.8-0.2-0.4 0.6-0.7 1-0.6 0.9 0.2 1.8 0.3 2.7 0.2 0.8-0.1 4-1.4 1.9-2.7-0.3-0.1-0.3-0.3-0.2-0.5-2.4-2-5.2-3.9-8.2-4.6-2.4-0.5-7.7-0.1-5.4 3.8 1 1.8 2.5 1.7 4.2 2.6 0.2 0.1 1.3 0.7 1.2 0.9-1.8 3.5-3 5.7-9.3 0.9-6.4-4.9-5.5-6.9-0.2-9.8-3-0.4-7.5 0.3-7.4 4 0.1 0.5-0.5 0.5-0.8 0.2-2.1-2.7-3-6.1-3.3-9.6-0.1 3 0.6 6.1 2.2 9.2 5.7 10.8 18.5 18.6 30.4 20 12.1 1.5 25.6-4.3 32.6-14.4 8.2-12 8.6-27.2 9.6-41.5-2.8 0.4-6 0.8-7.5-2.3z"/>
						<path id="Layer" class="s9" d="m113.3 71.1c-0.6 0.3-0.5 1.2 0.3 1.2 4.1-0.5 3.8 5.3 2.3 7.5-1.4 2.1-4.3 4-6.8 2.5-0.4-0.2-1.1 0.3-0.8 0.7 1.3 2.9-2.2 4.5-4.6 4.4 1.5-1.2 2.6-3 1.4-4.7q-0.1-0.1-0.1-0.1c-0.3 1.6-1 3.1-2.5 4.1-0.6 0.5-1.3 0.9-2.2 1-1 0.2-2 0.2-2.9-0.2 1.2 1.1 2.9 1.9 4.6 1.1q0 0 0-0.1c-1.3 4.1-6.4 6.9-10.4 4.9-0.4-0.2-1 0-1.1 0.5-0.2 1.8-1.1 3.1-3 3.6-1.5 0.4-3.2-0.1-4.3-1.3q1.3-1.5 2.3-3.1c8.3-12.5 9.4-27.2 9.5-41.8q-0.1-0.6-0.2-1.1c-1.3 0.3-2.7 0.3-4 0.1-0.7-0.1-1.5-0.4-2.2-0.8-1.9-1.2-2.5-4.1-1.4-6q0.1 0 0.2-0.1 0.1-0.4 0.4-0.8c-2.2 0.9-4.5 1.3-6.7 0.4-1.3-0.6-2.2-1.4-2.8-2.5-0.9-0.9-1.4-2-1.1-3.2q0-0.5 0-1.1c-1.7 1.4-3.3 2.9-5.3 3.9-1.8 0.8-3.5 0.4-5.4 0-2.1-0.6-7.4-2.7-5.6-5.5q0.2-0.3 0.4-0.5c0.1-0.2 0.1-0.4 0.1-0.5-1.7 1.2-3.9 1.8-5.9 1.4-1.4-0.3-2.5-1.5-2.9-2.8-0.8 2.1-2.2 4.1-4.4 4.8-1.3 0.5-3 0.6-4.2-0.3-1-0.7-1.1-1.7-1.6-2.6-0.2 2.5 1.1 4.3 4 4.1q0.3 0 0.6 0-3.4 3.4-6.8 6.8c-0.7 1.1-1.7 2.1-2.9 2.9q-0.1 0.1-0.1 0.2c-4.6 4.6-9.2 9.2-13 14.4-0.8-0.5-1.5-1-2-1.9-0.9-1.8 0.9-4.2 2.5-4.7 0.4-0.1 1.1-0.8 0.6-1.3-1.9-1.9-0.2-4.5 1.1-6.3 0.8-1.2 2.1-2 3.4-2.4 0.3-0.1 2.8-0.9 3.1-0.8 0.7 1 1.7 1.8 2.7 2.1-1-0.7-1.6-1.7-1.9-2.8-0.9-1.6-1-3.7-0.5-5.5 3.1-1.2 6.3-3.3 8.5-5.7 1.2-1.3 2.1-2.6 2.8-4.1 0.8-1.6 1.8-3.4 3.4-4.1-0.3 1.3 0.1 2.7 1.3 3.4 0.2 0.1 0.5-0.1 0.4-0.3-0.4-1.2-0.6-2.3-0.4-3.5 0.3-1.4 1.6-2.3 2.8-2.9 0.1-0.1 0.1-0.3-0.1-0.3-1.3 0.4-2.4 0.9-3.2 1.9q-0.3-0.4-0.5-0.8c-0.3-0.6 0.3-1.5 0.7-2 0.6-0.8 1.7-1.3 2.5-1.9 0.2-0.1 0.1-0.4-0.1-0.3-1.5 0.6-2.8 1-3.6 2.4q-0.4 0.7-0.5 1.3-2 0.2-4 0.3c1.3-0.6 2.6-0.9 3.6-0.9 0.4 0 0.9-0.6 0.4-0.9-4.1-2.8 2.5-9.1 6.8-6.2-0.4 1-0.5 2.2-0.4 3.4q0 0.1 0.1 0.1c0.6-3.3 2.2-7.1 6.1-7.1 2.3 0.1 4.4 1.2 5.9 2.9q0.1-0.2 0.2-0.4c0.8-2.8 4.1-3.8 6.7-3.4 2 0.4 3.4 2.4 4.7 3.8q0.1 0.1 0.3 0.2c2.4-3.1 7.6-3.3 10.7-1.2 2 1.4 3.7 3.4 3.8 6 0 1.8-0.3 3.5-0.9 5.3 1-1.4 2.7-2.6 3.8-3 1.6-0.6 3.4-0.7 4.7 0.2 1.4 0.3 2.5 1.1 2.9 2.6-0.8 0.1-1.4 0.5-1.9 1-0.4 0.4-0.8 1-0.7 1.5 1.5-1 3.3-1.6 5-0.9 2.9 1.2 1.8 4.7 1.1 7.1q0.1-0.1 0.2-0.1c5.4-3.2 9.9 3.5 8.5 8.2q-1.7-0.5-3.3-0.7c-1.6-0.3-3.7-0.6-5.7-0.6 0.6-1.3 0.5-2.8 0.4-4.3 0-0.1-0.2-0.1-0.2 0-0.7 3.1-2.4 5.1-4.9 6.8-0.4-1.1-1.1-2-1.9-3 0 0-0.1 0-0.1 0.1 0.5 1.5 0.7 3.1 0.4 4.7-0.2 1.4-1.4 2.4-1.7 3.9-0.1 0.2 0.2 0.3 0.3 0.2 1.1-0.6 2-1.4 2.5-2.4 1.7 1.5 3.3 3 4.5 5.1 0.8 1.4 1.4 2.9 2 4.5q-0.1 0-0.2 0c0.6 1.1 0.9 2.4 0.1 3.5q-0.2 0.2-0.3 0.4c-0.6 0.9-1.7 1.6-3 1-0.2 0-0.3 0-0.4 0.1-1.5-0.3-3.2-0.4-4.3 0.8 1.8-0.7 4-0.4 5.6 0.9 1.2 0.9 1.9 2.1 2.3 3.4 0-1.6-0.4-3.3-1.6-4.2 1.4-0.3 2.6-1.8 2.9-3.2q0.2 0.5 0.5 1c1.4 2.5 3.6 4.3 6.1 5.7 1.4 2.4 1.3 5.6-1.5 6.9z"/>
						<path id="Layer" class="s12" d="m113.6 72.3c-0.8 0-0.9-0.9-0.3-1.2 2.8-1.3 2.9-4.5 1.5-6.9-2.5-1.4-4.7-3.2-6.1-5.7q-0.3-0.5-0.5-1c-0.3 1.4-1.5 2.9-2.9 3.2 1.2 0.9 1.6 2.6 1.6 4.2-0.4-1.3-1.1-2.5-2.3-3.4-1.6-1.3-3.8-1.6-5.6-0.9 1.1-1.2 2.8-1.1 4.3-0.8 0.1-0.1 0.2-0.1 0.4-0.1 1.3 0.6 2.4-0.1 3-1q0.1-0.2 0.3-0.4c0.8-1.1 0.5-2.4-0.1-3.5q0.1 0 0.2 0c-0.6-1.6-1.2-3.1-2-4.5-1.2-2.1-2.8-3.6-4.5-5.1-0.5 1-1.4 1.8-2.5 2.4-0.1 0.1-0.4-0.1-0.3-0.2 0.3-1.5 1.5-2.5 1.7-3.9 0.3-1.6 0.1-3.2-0.4-4.7 0-0.1 0.1-0.1 0.1-0.1 0.8 1 1.5 1.9 1.9 3 2.5-1.7 4.2-3.7 4.9-6.8 0-0.1 0.2-0.1 0.2 0 0.1 1.5 0.2 3-0.4 4.2 2 0.1 4.1 0.4 5.7 0.7q1.6 0.2 3.3 0.7c0.3-0.9 0.3-1.9 0.2-2.8-1.4 0.6-3 1-4.3 0.4-3-1.3-2.8-5-0.7-6.6-1.1-0.2-2.3 0-3.7 0.8q-0.1 0-0.2 0c0.4-1.4 1-3.3 0.7-4.8q0 0.2-0.1 0.4c-0.3 0.9-1.2 2.1-2.3 2-0.6-0.1-1.1-0.3-1.7-0.5 2.1 2.1 3.1 4.9 0.9 7.7-0.8 1-1.9 1.5-2.9 0.5-0.8-0.8-1.4-1.7-2.5-2.2q-0.9-0.4-1.9-0.6c1.3 1.9 2.1 4.1 1.4 6.4-0.8 2.3-2.6 4.8-5.3 4.9-1.9 0.1-3.3-1.9-3.3-3.6 0-1.2 0.2-2.3 0.6-3.4-1.8 1-4 1.5-5.8 1.3-3.8-0.4-5.4-4.1-5.5-7.7-1.9 2.2-4.8 3.9-7 4.5-2.5 0.6-5.5 0.5-7.2-1.8-1.7-2.1-1.6-4.4-0.8-6.5-2.7 1.2-5.7 1.6-8 1-2.2-0.6-4.7-2.7-4.5-5.2 0.2-1.9 1.2-3.3 2.7-4.2-1.1 0.2-2.1 0.4-3.1 0.6-0.7 0.2-1.3-0.7-0.7-1.2 1.7-1.5 3.7-2.4 6-2.2-0.3-2.3 0.3-4.7 1.7-6.5-2.3 1.1-3.4 4-3.8 6.6q-0.1 0-0.1-0.1c-0.1-1.2 0-2.4 0.4-3.4-4.3-2.9-10.9 3.4-6.8 6.2 0.5 0.3 0 0.9-0.4 0.9-1 0-2.3 0.3-3.6 0.9q2-0.1 4-0.3 0.1-0.6 0.5-1.3c0.8-1.4 2.1-1.8 3.6-2.4 0.2-0.1 0.3 0.2 0.1 0.3-0.8 0.6-1.9 1.1-2.5 1.9-0.4 0.5-1 1.4-0.7 2q0.2 0.4 0.5 0.8c0.8-1 1.9-1.5 3.2-1.9 0.2 0 0.2 0.2 0.1 0.3-1.2 0.6-2.5 1.5-2.8 2.9-0.2 1.2 0 2.3 0.4 3.5 0.1 0.2-0.2 0.4-0.4 0.3-1.2-0.7-1.6-2.1-1.3-3.4-1.6 0.7-2.6 2.5-3.4 4.1-0.7 1.5-1.6 2.8-2.8 4.1-2.2 2.4-5.4 4.5-8.5 5.7-0.5 1.8-0.4 3.9 0.5 5.5 0.3 1.1 0.9 2.1 1.9 2.8-1-0.3-2-1.1-2.7-2.1-0.3-0.1-2.8 0.7-3.1 0.8-1.3 0.4-2.6 1.2-3.4 2.4-1.3 1.8-3 4.4-1.1 6.3 0.5 0.5-0.2 1.2-0.6 1.3-1.6 0.5-3.4 2.9-2.5 4.7 0.5 0.8 1.2 1.4 2 1.9 3.8-5.2 8.4-9.8 13-14.4q0-0.1 0.1-0.2c1.2-0.8 2.2-1.8 2.9-2.9q3.4-3.4 6.8-6.8-0.3 0-0.6 0c-2.9 0.2-4.2-1.6-4-4.1 0.5 0.9 0.6 1.9 1.6 2.6 1.2 0.9 2.9 0.8 4.2 0.3 2.2-0.7 3.6-2.7 4.4-4.8 0.4 1.3 1.5 2.5 2.9 2.8 2 0.4 4.2-0.2 5.9-1.4 0 0.1 0 0.3-0.1 0.5q-0.2 0.2-0.4 0.5c-1.8 2.8 3.5 4.9 5.6 5.4 1.9 0.5 3.6 0.9 5.4 0.1 2-1 3.6-2.5 5.3-3.9q0 0.6 0 1.1c-0.3 1.2 0.2 2.3 1.1 3.2 0.6 1.1 1.5 1.9 2.8 2.5 2.2 0.9 4.5 0.5 6.7-0.4q-0.3 0.4-0.4 0.8-0.1 0.1-0.2 0.1c-1.1 1.9-0.5 4.8 1.4 6 0.7 0.4 1.5 0.7 2.2 0.7 1.3 0.3 2.7 0.3 4 0q0.1 0.5 0.2 1.1c-0.1 14.6-1.2 29.3-9.5 41.8q-1 1.6-2.3 3.1c1 1.2 2.8 1.7 4.3 1.3 1.9-0.5 2.8-1.8 3-3.6 0.1-0.5 0.7-0.7 1.1-0.5 4 2 9.1-0.8 10.4-4.9q0 0.1 0 0.1c-1.7 0.8-3.4 0-4.6-1.1 0.9 0.4 1.9 0.4 2.9 0.2 0.9-0.1 1.6-0.5 2.2-1 1.5-1 2.2-2.5 2.5-4.1q0 0 0 0.1c1.3 1.7 0.2 3.5-1.3 4.7 2.4 0.1 5.9-1.5 4.6-4.4-0.3-0.4 0.4-0.9 0.8-0.7 2.5 1.5 5.4-0.4 6.8-2.5 1.5-2.2 1.8-8-2.3-7.5z"/>
						<path id="Layer" class="s14" d="m44 36.7c1.2 0.9 2.9 0.8 4.2 0.3q1-0.3 1.7-0.9c-1.2-0.5-2.3-1.2-3.1-2.2-2-2.3-1.7-5.4-0.4-7.8-0.8 0.8-1.4 1.9-1.9 3-0.7 1.5-1.6 2.8-2.8 4.1q-0.8 0.9-1.8 1.8c-0.3 1.9 0 3.8 1.6 4.9 0.4 0.2 0.5 0.6 0.3 1-1.4 2.8-6 4.4-8.6 2.1q0-0.1-0.1-0.2 0.2 0.8 0.6 1.6c0.3 1.1 0.9 2.1 1.9 2.8-1-0.3-2-1.1-2.7-2.1-0.3-0.1-2.6 0.6-3 0.8 1.9 0 3.6 0.8 3.7 2.9 0.1 2-0.8 3.4-1.9 4.9q2.7-2.8 5.5-5.6 0-0.1 0.1-0.2c1.2-0.8 2.2-1.8 2.9-2.9q3.4-3.4 6.8-6.8-0.3 0-0.6 0c-2.9 0.2-4.2-1.6-4-4.1 0.5 0.9 0.6 1.9 1.6 2.6z"/>
						<path id="Layer" class="s14" d="m95 79.2c0.2-0.3 0.6-0.5 0.9-0.4 3.2 1.3 6.6 2.8 9.6-0.1q1.1-1.1 1.9-2.4c-1.6 1.1-3.5 1.7-5.6 1.6-2.8-0.2-5.3-2.4-5.3-5.3 0-3.6 2.1-6.8 5.7-7.8 2.5-0.6 4.8-0.2 6.2 1.7 0-1.6-0.8-3.3-0.2-4.9 0.3-0.6 0.9-1.1 1.6-1.5q-0.6-0.7-1.1-1.6-0.2-0.5-0.5-0.9 0 0-0.1 0.1c-0.3 1.4-1.5 2.7-2.8 3 1.2 0.9 1.6 2.6 1.6 4.2-0.4-1.3-1.1-2.5-2.3-3.4-1.6-1.3-3.8-1.6-5.6-0.9 1.1-1.2 2.8-1.1 4.3-0.8 0.1-0.1 0.2-0.1 0.4-0.1 1.3 0.6 2.4-0.1 3-1q0.1-0.2 0.2-0.3c-2 1-4.1 1.2-6.1-0.1-1.9-1.2-3.1-3.5-2-5.7 1.1-2.1 3-3.3 5.2-3.9-1-1.3-2.1-2.4-3.4-3.5-0.5 1-1.4 1.8-2.5 2.4-0.1 0.1-0.4 0-0.3-0.2-1.6 1.4-3.8 2.2-6.3 1.9-2-0.3-3.6-1.2-4.7-2.5 0.2 1.1 0.9 2.1 1.8 2.7 0.7 0.4 1.5 0.7 2.2 0.8 1.3 0.2 2.7 0.2 4-0.1q0.1 0.5 0.2 1.1c-0.1 14.6-1.2 29.3-9.5 41.8q-1 1.6-2.3 3.1c1 1.2 2.8 1.7 4.3 1.3 1.9-0.5 2.8-1.8 3-3.6 0.1-0.5 0.7-0.7 1.1-0.5 4 2 9.1-0.8 10.4-4.9q0 0.1 0 0.1c-1.7 0.8-3.4 0-4.6-1.1 0.9 0.4 1.9 0.4 2.9 0.2 0.9-0.1 1.6-0.5 2.2-1 1.1-0.7 1.7-1.6 2.1-2.7-4.3 3.4-13.7 1.5-9.6-4.8z"/>
						<path id="Layer" class="s4" d="m134.5 64.4c-0.4 0.4-1.2 0.5-1.8 0.6-5.8 1.3-11.7 0.2-16.8-2.9-2.4-1.4-4.2-3.1-5.7-5.2-0.7-0.8-1.4-1.6-1.7-2.7q-0.5-0.8-0.9-1.6c-1.6-3.2-3.7-6.1-6.7-8q0.2-0.5 0.3-1.1 0.1-0.7 0-1.4c1.5-0.2 2.7-0.6 3.8-1.7q0.2-0.3 0.4-0.6c2.6 0.2 5.6 1 7.3 1.5q0.6 0.1 1.1 0.3 0.6 0.1 1.2 0.4c3.7 1.2 7.2 3.1 9.9 6 2.8 2.9 4.2 7 5.8 10.7 0.6 1.5 1.3 2.9 2.5 4.1 0.1 0.1 1.8 1.1 1.3 1.6z"/>
						<path id="Layer" class="s6" d="m48.3 23.7c-0.7-0.4-1-0.9-1.1-1.5q0 0-0.1 0.1-0.3 0.1-0.6 0.2c0.4 0.3 0.3 0.9-0.1 1.2-2.6 1.8-5.6 1.2-8.5 1.9-3.6 0.8-6.4 3-9.5 5-2.9 1.9-5.9 3.3-9.3 3.8-2.9 0.4-6.4 0-9.2 1q-0.1 0.2-0.2 0.4c-0.6 1.6 2.7 1.2 3.2 1.2 0.9 0.1 1.8 0.2 2.7 0.4 6 0.9 11.7 1.1 17.1-0.7 0.8 0 1.9-0.7 2.4-0.9q0.5-0.2 0.9-0.4c0.5-0.2 1.2-0.6 1.5-0.8 1.1-0.7 2.3-1.5 3.2-2.5 1-0.8 1.9-1.8 2.6-2.9 0.6-1 1.1-2 1.9-2.9 0.6-0.7 1.3-1.4 2.1-1.8q0.3 0 0.7 0 0.1-0.2 0.2-0.4 0.1-0.2 0.2-0.4-0.1 0-0.1 0z"/>
						<path id="Layer" class="s6" d="m131.5 63.8c-2-1.6-3.1-3.8-4.3-6-1.4-2.4-3.1-4.6-5.4-6.4-2.5-1.9-5.3-3.3-8.1-4.7-2-0.9-4.6-1.7-6.3-3.1-1.4-1.3-1.9-2.8-0.8-3.6q-0.6-0.1-1.2-0.2-0.2 0.3-0.4 0.6c-1.1 1.1-2.3 1.5-3.8 1.7q0.1 0.7 0 1.4-0.1 0.6-0.3 1.1c3 1.9 5.1 4.8 6.7 8q0.4 0.8 0.9 1.6c0.3 1.1 0.9 1.9 1.7 2.7 1.5 2.1 3.3 3.8 5.7 5.2 5.1 3.1 11 4.3 16.8 2.9q0.3 0 0.6-0.1-0.9-0.4-1.8-1.1z"/>
						<path id="Layer" class="s0" d="m42.8 24.8c-4.4-1.3-9.6 2.8-13.1 5-2.8 1.8-5.4 3.8-8.6 4.8-3.3 1-6.9 0.9-10.3 0.3q-0.1 0-0.1 0 0.1 0.2 0.1 0.4c0 0 0.1 0 0.1 0-0.1-0.1 2.7 0.5 2.9 0.6 1.4 0.2 2.7 0.2 4 0.1 2.5-0.2 5-1.1 7.1-2.3 5.2-2.8 9.9-7.1 15.8-8.3-1.3 3.3-3.3 5.6-6.1 7.8 0 0.1 0 0.1 0.1 0.1 1.6-0.5 3-1.4 4.2-2.7 1.3-1.4 1.6-3.4 2.2-5.2q0.8-0.2 1.6-0.2c0.2 0 0.4-0.3 0.1-0.4z"/>
						<path id="Layer" class="s0" d="m129.4 62.7c-1.4-4.6-4.8-8.9-8.4-12.1-4.6-4.1-10.8-4.9-16-7.9-0.1-0.1-0.2 0-0.1 0.1q0.1 0 0.1 0.1c0 0.1 0.1 0 0.1 0 0.1 0.6 1.3 1.3 1.7 1.7q0.1 0.1 0.1 0.1c0.5 0.8 0.6 2.1 0.8 2.9 0.2 1 0.8 2.2 1.3 3.1 1.6 2.8 4.3 4.7 6.2 7.3 0 0.1 0.2 0 0.2-0.1-1.7-3.3-4.6-5.7-6.1-9.1-0.4-0.8-0.6-2.1-1-3.2 0.7 0.5 1.5 0.9 2.3 1.2 2.5 1.2 5.1 2.1 7.5 3.3 5.1 2.5 9.1 7.5 11.2 12.7 0 0.1 0.2 0 0.1-0.1z"/>
					</g>
					<path id="Layer" class="s0" d="m54.1 44.1c0.2-1.9-0.5-3.5-2.4-4.3-1.7-0.7-3.6 1.1-4.7 2.1-0.6 0.6-0.2 1.8 0.7 1.3 0.7-0.5 1.9-1.3 2.8-0.8 0.5 0.2 0.8 0.9 1.1 1.3 0.3 0.5 0.9 0.8 1.4 1 0.4 0.2 1.1 0 1.1-0.6z"/>
					<path id="Layer" class="s0" d="m79.9 50.7c0.3-2.2-0.6-4.3-2.8-4.9-1.7-0.4-4.8 0.8-5.2 2.6-0.1 0.2 0.1 0.4 0.3 0.4 1.4 0.2 2.7-0.9 4.1-0.5 1.1 0.3 1.9 2.1 2.8 2.8 0.3 0.2 0.8-0.1 0.8-0.4z"/>
					<path id="Layer" class="s0" d="m50.3 49.8c-0.4-0.7-1-1-1.5-1.3-0.6-0.3-1.4-0.4-2.3-0.2-3.9 0.8-7 3.3-9.6 6.2-2 2.4-4.4 5.7-4.5 8.9q0 0.4 0.1 0.9c-0.8-0.7-1.7-1.2-2.7-1.5q-0.1 0-0.2 0c1.6 1.3 3.2 2.6 4.3 4.2q0.8 1.2 1.3 2.5c0.2 0.1 0.5-0.2 0.4-0.4q-0.2-0.5-0.4-1 1 0.5 2.2 0.8c6.1 1.6 11.2-4.6 12.9-9.8 0.8-2.8 1.9-6.8 0-9.3z"/>
					<path id="Layer" class="s9" d="m48.8 60.1c-1.7 4.4-5.9 8.9-11 8-2.9-0.5-4.9-2.5-4.1-5.6 0.6-2.5 2.4-4.8 3.9-6.8 1.7-2.2 3.9-4.1 6.3-5.4 1.4-0.7 2.9-1.4 4.4-1.1 1.2 0.6 1.9 2.1 2 3.3 0.3 2.5-0.5 5.3-1.5 7.6z"/>
					<g id="Layer">
						<path id="Layer" class="s0" d="m69.3 90.9c-1.6-0.7-3.2-1.5-3.7-3.2q-0.1 0 0 0.1c0.4 1.8 1.8 3.1 3.4 3.9 0.8 2-1.3 4-3 5-2.6 1.6-6 2.6-8.9 3.5-3.8 1.2-7.3 1.1-10.7-1.1-2.7-1.8-4.8-4.9-4.9-8.2 2.4 0.4 9 1.2 7.6-1.4-0.8-1.5-3.6-2.7-5-3.4q-1.9-1-3.9-1.2c-2-0.6-4.5-1-5.6 0.3-2.1 2.7 4.7 5.1 6.2 5.5q0.1 0.1 0.2 0.1c-0.5 2.8-1.6 6.6-5.2 5.6-0.9-0.2-1.8-0.7-2.7-1.3-1.2-0.6-2.4-1.4-3.5-2.3-1.3-1-2.8-2.1-3.6-3.6-0.5-1.2-0.4-2.3 0.2-3.1 0.2-0.6 0.6-1.1 1.4-1.5q0 0 0.1 0 0.8-0.6 1.7-0.9c-2.3 0.3-5.1 1-4.9 3.7 0.2 3.1 3.1 5.5 5.3 7.4 1.5 1.3 3.7 2.7 5.8 2.9q0 0 0.1 0.1c1.1 0.5 1.8 1.7 2.7 2.5 1.4 1 3.2 1.8 4.8 2.3 2.9 1.1 6 0.2 8.7-0.8q0.1 0 0.2-0.1c2.2-0.1 4.5-0.7 6.6-1.4 3.5-1.3 7.7-2.2 10.3-5 0.7-0.8 1.2-2.1 1.1-3.2 1.5 0.4 3.2 0.5 4.6 0.1 0.2 0 0.3-0.2 0.3-0.4-1.9 0.2-3.8-0.1-5.7-0.9z"/>
						<path id="Layer" class="s15" d="m40.6 89.5c-1.2-0.3-7-3.6-4.1-4q0.1 0 0.1 0 0.2 0 0.4 0c1.2-0.1 2.4 0.2 3.7 0.4 2.1 0.6 4.1 1.8 6.1 3.1q0.7 0.4 1.4 1c0.2 0.3-2.1 0.5-2.5 0.5-1.7 0-3.5-0.4-5.1-1z"/>
						<path id="Layer" class="s15" d="m42.9 101.2c-1.4-0.5-3-1.4-4.2-2.3-0.7-0.5-1.1-0.9-1.7-1.3q0.3 0 0.5-0.1c1.1-0.4 1.8-1.1 2.4-2.1 0.5-0.7 0.8-1.5 1-2.4 0.4 3.2 3.2 6.5 6 7.7 1.1 0.5 2.3 0.8 3.5 0.9-2.5 0.3-4.9 0.5-7.5-0.4z"/>
						<path id="Layer" class="s16" d="m46.9 100.7c-2.8-1.2-5.6-4.5-6-7.7-0.2 0.9-0.5 1.7-1 2.4-0.6 1-1.3 1.7-2.4 2.1q-0.2 0.1-0.5 0.1 0.3 0.2 0.5 0.4c1.9-0.7 3.7-1.1 5.4 0.8 0.8 0.9 1.2 1.8 1.4 2.8 2.1 0.4 4 0.2 6.1 0-1.2-0.1-2.4-0.4-3.5-0.9z"/>
					</g>
					<g id="Layer">
						<path id="Layer" class="s0" d="m69.6 77.3q-1.5 1.1-2.6 2.6c1.1-0.8 2.3-1.5 3.7-1.9 2.7-1.4 5.7-1.7 8.9-1.4q0.5-0.1 1-0.2c-1.8-0.5-3.6-1.2-5.5-1.2 2.6-2.4 4.3-6.3 4.8-9.3 0.6-3.5-0.3-7.1-2.3-10-1.6-2.3-4.2-2.1-6.4-1q-0.4 0.1-0.7 0.3c-2.9 1.4-4.9 4.4-6.5 7-1.4 2.4-2.8 5.5-2.2 8.3 0.6 3.2 3.1 5.3 6 6.4q0.9 0.3 1.8 0.4z"/>
						<path id="Layer" class="s9" d="m64.5 63.1c1.2-2 2.8-3.9 4.5-5.5 1-0.9 2.2-1.6 3.4-2.1q0.5-0.2 0.9-0.3 0.7-0.1 1.4 0c1.2 0.2 2.1 1.1 3 2.2q0 0.1 0.1 0.2c1.4 2.4 1.7 5.6 1.3 8.4-0.7 6.1-5.8 12.3-11.9 9.6-5.2-2.4-5.5-7.8-2.7-12.5z"/>
						<g id="Layer">
							<path id="Layer" class="s17" d="m47.3 63.7c-2.3 3.2-5.7 4.7-7.7 3.3-2.1-1.4-1.9-5.1 0.3-8.4 2.3-3.2 5.7-4.7 7.7-3.3 2.1 1.4 1.9 5.2-0.3 8.4z"/>
							<path id="Layer" class="s18" d="m46.7 63.3c-1.9 2.8-4.8 4-6.6 2.9-1.7-1.2-1.5-4.4 0.4-7.2 1.9-2.7 4.8-4 6.5-2.8 1.7 1.2 1.6 4.4-0.3 7.1z"/>
							<path id="Layer" class="s19" d="m45.7 62.8c-1.2 2-3.1 3-4.3 2.2-1.2-0.7-1.2-2.8-0.1-4.8 1.2-1.9 3.1-2.9 4.3-2.2 1.2 0.7 1.2 2.9 0.1 4.8z"/>
							<path id="Layer" class="s9" d="m47.4 59.9c-0.2 1-0.9 1.6-1.5 1.5-0.6-0.1-0.9-1-0.7-2 0.3-1 0.9-1.6 1.5-1.5 0.6 0.1 0.9 1 0.7 2z"/>
							<path id="Layer" class="s9" d="m45.7 64.1c-0.3 0.6-0.8 0.9-1.2 0.7-0.3-0.2-0.3-0.9 0-1.4 0.3-0.6 0.9-0.9 1.2-0.7 0.4 0.2 0.4 0.9 0 1.4z"/>
						</g>
						<g id="Layer">
							<path id="Layer" class="s17" d="m77.9 70.3c-1.6 3.6-4.6 5.7-6.9 4.7-2.3-0.9-2.8-4.7-1.3-8.3 1.6-3.5 4.7-5.7 6.9-4.7 2.3 1 2.9 4.7 1.3 8.3z"/>
							<path id="Layer" class="s18" d="m77.3 70c-1.4 3.1-4 4.9-5.9 4.1-1.9-0.8-2.4-4-1-7.1 1.3-3 3.9-4.9 5.8-4 1.9 0.8 2.4 3.9 1.1 7z"/>
							<path id="Layer" class="s19" d="m76.2 69.9c-0.8 2.1-2.4 3.5-3.7 3-1.4-0.4-1.8-2.5-1.1-4.7 0.8-2.1 2.4-3.4 3.7-3 1.4 0.5 1.8 2.6 1.1 4.7z"/>
							<path id="Layer" class="s9" d="m77.3 66.7c0 1-0.5 1.8-1.1 1.8-0.7 0-1.1-0.9-1.1-1.9 0-0.9 0.5-1.7 1.1-1.7 0.7 0 1.1 0.8 1.1 1.8z"/>
							<path id="Layer" class="s9" d="m76.5 71.2c-0.2 0.6-0.7 1-1.1 0.8-0.4-0.1-0.5-0.7-0.3-1.3 0.2-0.6 0.7-1 1.1-0.9 0.4 0.2 0.5 0.8 0.3 1.4z"/>
						</g>
					</g>
				</g>
				<path id="Layer" class="s20" d="m36.8 24.3c-4.4 0.1-8.7 0.9-12.9 2.2-3.9 1.2-6.7 3.5-10 5.9-0.1 0 0 0.1 0.1 0.1 7.2-4.3 15-5.1 22.9-7.6 0.3-0.2 0.2-0.6-0.1-0.6z"/>
				<path id="Layer" class="s20" d="m131.1 61.8c-2.4-4.9-3.5-10.1-7.6-14-4.4-4.5-9.9-5.3-15.7-6.9-0.2 0-0.3 0.3-0.1 0.4 5.1 2.6 10.3 3.9 14.7 7.9 1.9 1.7 3.3 3.7 4.7 5.9 1.4 2.3 1.8 5 3.8 6.8 0.1 0.1 0.3 0 0.2-0.1z"/>
				<path id="Layer" class="s21" d="m55.4 66.7c-2.1 4.5-3.6 9.2-4.6 14-0.5 2.4-0.9 5-1 7.6-1.2-1.1-2.4-2.1-3-2.5-2.6-1.5-5.7-2.1-8.7-2.2-1.1-0.1-2.3 0.1-3.3 0.7q-0.6 0-1.1 0.2c9.3-5.3 17.8-22.6 20.8-32.4 0.8-2.7 2.1-6.1 1.7-9.1 1.8 0.3 3.4 1.7 4.9 2.6 1.3 0.8 2.9 1 4.4 1.2 2.3 0.2 4.9 0 6.9 0.8-7.7 3.7-13.3 11.6-17 19.1z"/>
				<path id="Layer" class="s22" d="m44 87.7c-2.2-1.1-5.2-2.2-7.7-1.6-0.1 0-0.1 0.2 0 0.2 2.7 0.1 4.9 1.5 7.5 2.1 0.4 0 0.6-0.5 0.2-0.7z"/>
				<path id="Layer" class="s22" d="m46.2 89.6c-0.3-0.4-0.7-0.9-1.1-1.2-0.2 0-0.4 0-0.6 0.2-0.1 0.1-0.1 0.2-0.1 0.3 0 0.1 0.1 0.3 0.3 0.4 0.4 0.1 0.9 0.3 1.3 0.5 0.1 0.1 0.2-0.1 0.2-0.2z"/>
				<path id="Layer" class="s20" d="m36.3 94.8c-3.1-1.1-9.4-4-8.7-8.1 0-0.2-0.3-0.3-0.4-0.1-1.5 4.3 5.3 8.4 8.9 8.8 0.3 0.1 0.5-0.5 0.2-0.6z"/>
				<path id="Layer" class="s20" d="m65.6 94.6c-2.3 2-5.6 2.7-8.5 3.4-2.9 0.8-7.2 1.5-9.9-0.2-0.2-0.1-0.4 0.1-0.3 0.2 2.2 2.4 6.8 1.8 9.6 1.2 1.9-0.5 3.6-1.1 5.4-1.8 1.4-0.6 2.9-1.3 3.9-2.5 0.2-0.2-0.1-0.4-0.2-0.3z"/>
				<path id="Layer" class="s20" d="m47.7 39.5c-3.9 3.5-7.2 7.3-10.8 11.1-3.1 3.3-6.2 6.6-9.1 10.1-2.7 3.3-5.1 7-6.5 11.1-1.3 4-1.2 8.2 0.1 12.2 0 0.2 0.2 0.1 0.2 0-1.9-8.9 2-16.6 7.5-23.3 2.7-3.3 5.7-6.3 8.6-9.5 1.5-1.6 2.8-3.4 4.3-5 1.9-2.2 4.1-4.2 5.9-6.4 0.2-0.2-0.1-0.5-0.2-0.3z"/>
				<path id="Layer" class="s23" d="m72.9 76.3c4.9-1.4 9.7 0 10.7 3.2 0.9 3.3-2.4 7-7.4 8.5-5 1.4-9.8 0-10.7-3.3-0.9-3.2 2.4-6.9 7.4-8.4z"/>
				<path id="Layer" class="s23" d="m34.6 67.7c1.7 3.9 0.5 8.1-2.6 9.4-3.1 1.3-6.9-0.8-8.6-4.7-1.6-3.9-0.4-8.1 2.6-9.4 3.1-1.3 7 0.8 8.6 4.7z"/>
				<path id="Layer" class="s24" d="m50.3 52.5c-0.1-1.2-0.8-2.7-2-3.3q-0.5-0.1-1-0.1c3.1 2.5 1.2 7.6-0.1 10.5-1.8 3.7-4.9 7.5-9.4 6.9-3.6-0.5-3.4-4.7-2.5-7.4q0.1-0.3 0.3-0.6c-0.9 1.2-1.6 2.6-1.9 4-0.8 3.1 1.2 5.1 4.1 5.6 5.1 0.9 9.3-3.6 11-8 1-2.3 1.8-5.1 1.5-7.6z"/>
				<path id="Layer" class="s24" d="m77.8 57.6q-0.1-0.1-0.1-0.2c-0.9-1.1-1.8-2-3-2.2q-0.7-0.1-1.4 0-0.1 0-0.3 0.1 0.3 0.1 0.5 0.4c1.1-0.1 2.3 0.5 3.4 2.2 2.7 4.2-0.9 11.9-4.4 14.5-3.7 2.8-7.9 1.2-7.9-3.6 0-5.2 2.7-9.5 6.6-12.7q-1.1 0.6-2.2 1.5c-1.7 1.6-3.3 3.5-4.5 5.5-2.8 4.7-2.5 10.1 2.7 12.5 6.1 2.7 11.2-3.5 11.9-9.6 0.4-2.8 0.1-6-1.3-8.4z"/>
			</g>
		</g>
	</g>
</svg>